<svg width="20" height="20" viewBox="0 0 20 20" fill="none" xmlns="http://www.w3.org/2000/svg">
<g clip-path="url(#clip0_415_123)">
<path d="M16.25 11.31L9.99998 17.5L7.58664 15.11M2.48914 8.35667C2.48218 7.4778 2.7533 6.61924 3.26374 5.90376C3.77418 5.18828 4.4978 4.65253 5.3311 4.37313C6.1644 4.09373 7.06471 4.08499 7.90328 4.34815C8.74186 4.61131 9.47574 5.13291 9.99998 5.83834C10.3446 5.38002 10.7801 4.99777 11.2792 4.71551C11.7784 4.43324 12.3304 4.25704 12.9008 4.19794C13.4711 4.13883 14.0475 4.19808 14.594 4.372C15.1404 4.54591 15.645 4.83073 16.0763 5.20864C16.5075 5.58655 16.8562 6.04941 17.1003 6.56825C17.3445 7.08709 17.4789 7.65074 17.4952 8.22393C17.5115 8.79711 17.4094 9.3675 17.1951 9.89938C16.9808 10.4313 16.6591 10.9132 16.25 11.315" stroke="#0068FF" stroke-width="1.25" stroke-linecap="round" stroke-linejoin="round"/>
<path d="M2.5 10.8333H4.16667L5.83333 13.3333L7.5 8.33325L8.33333 10.8333H10.8333" stroke="#0068FF" stroke-width="1.25" stroke-linecap="round" stroke-linejoin="round"/>
</g>
<defs>
<clipPath id="clip0_415_123">
<rect width="20" height="20" fill="white"/>
</clipPath>
</defs>
</svg>
