<svg width="20" height="20" viewBox="0 0 20 20" fill="none" xmlns="http://www.w3.org/2000/svg">
<path d="M3.33325 4.16703C3.33327 4.05621 3.35539 3.94651 3.39831 3.84435C3.44124 3.74218 3.50411 3.6496 3.58325 3.57203C4.49146 2.68173 5.70479 2.17097 6.9763 2.14373C8.2478 2.11648 9.48191 2.57479 10.4274 3.42536L10.7199 3.6987C11.3278 4.23128 12.1084 4.52489 12.9166 4.52489C13.7248 4.52489 14.5054 4.23128 15.1133 3.6987L15.3208 3.50953C15.8291 3.10703 16.5933 3.4287 16.6624 4.07286L16.6666 4.16703V11.667C16.6666 11.7778 16.6444 11.8876 16.6015 11.9897C16.5586 12.0919 16.4957 12.1845 16.4166 12.262C15.5084 13.1523 14.295 13.6631 13.0235 13.6903C11.752 13.7176 10.5179 13.2593 9.57242 12.4087L9.27992 12.1354C8.6912 11.6195 7.93973 11.3273 7.15718 11.31C6.37464 11.2926 5.61095 11.5512 4.99992 12.0404V17.5004C4.99968 17.7128 4.91835 17.9171 4.77255 18.0715C4.62674 18.226 4.42746 18.3189 4.21542 18.3313C4.00339 18.3438 3.7946 18.2748 3.63172 18.1385C3.46885 18.0022 3.36417 17.8088 3.33909 17.5979L3.33325 17.5004V4.16703Z" fill="#0068FF"/>
</svg>
