<svg width="20" height="20" viewBox="0 0 20 20" fill="none" xmlns="http://www.w3.org/2000/svg">
<g clip-path="url(#clip0_424_601)">
<path d="M5.06751 16.6667C6.41084 16.6667 7.50001 15.5542 7.50001 14.1833V6.0475C7.50001 5.46917 7.04001 5 6.47334 5C6.30251 5 6.13584 5.04333 5.98667 5.125L5.87834 5.19417C4.66167 6.07667 3.85167 7.4 3.04167 10.0475C2.69167 11.1892 2.51167 12.5158 2.50167 14.0267C2.49167 15.4225 3.55251 16.5717 4.89917 16.6608L5.06751 16.6667Z" stroke="#0068FF" stroke-width="1.25" stroke-linecap="round" stroke-linejoin="round"/>
<path d="M14.9333 16.6667C13.5892 16.6667 12.5 15.5542 12.5 14.1833V6.0475C12.5 5.46917 12.96 5 13.5275 5C13.6975 5 13.865 5.04333 14.0142 5.125L14.1225 5.19417C15.3392 6.07667 16.1492 7.4 16.96 10.0475C17.31 11.1892 17.49 12.5158 17.5 14.0267C17.51 15.4225 16.4492 16.5717 15.1017 16.6608L14.9333 16.6667Z" stroke="#0068FF" stroke-width="1.25" stroke-linecap="round" stroke-linejoin="round"/>
<path d="M7.5 10C8.16304 10 8.79893 9.73661 9.26777 9.26777C9.73661 8.79893 10 8.16304 10 7.5C10 8.16304 10.2634 8.79893 10.7322 9.26777C11.2011 9.73661 11.837 10 12.5 10" stroke="#0068FF" stroke-width="1.25" stroke-linecap="round" stroke-linejoin="round"/>
<path d="M10 3.33325V7.49992" stroke="#0068FF" stroke-width="1.25" stroke-linecap="round" stroke-linejoin="round"/>
</g>
<defs>
<clipPath id="clip0_424_601">
<rect width="20" height="20" fill="white"/>
</clipPath>
</defs>
</svg>
