<svg width="21" height="21" viewBox="0 0 21 21" fill="none" xmlns="http://www.w3.org/2000/svg">
<g clip-path="url(#clip0_286_2134)">
<path d="M7.16659 4.66699H5.49992C5.05789 4.66699 4.63397 4.84259 4.32141 5.15515C4.00885 5.46771 3.83325 5.89163 3.83325 6.33366V16.3337C3.83325 16.7757 4.00885 17.1996 4.32141 17.5122C4.63397 17.8247 5.05789 18.0003 5.49992 18.0003H10.2474" stroke="#0063F2" stroke-width="1.25" stroke-linecap="round" stroke-linejoin="round"/>
<path d="M15.5 12.167V15.5003H18.8333" stroke="#0063F2" stroke-width="1.25" stroke-linecap="round" stroke-linejoin="round"/>
<path d="M15.5001 9.66699V6.33366C15.5001 5.89163 15.3245 5.46771 15.0119 5.15515C14.6994 4.84259 14.2754 4.66699 13.8334 4.66699H12.1667" stroke="#0063F2" stroke-width="1.25" stroke-linecap="round" stroke-linejoin="round"/>
<path d="M7.16663 4.66667C7.16663 4.22464 7.34222 3.80072 7.65478 3.48816C7.96734 3.17559 8.39127 3 8.83329 3H10.5C10.942 3 11.3659 3.17559 11.6785 3.48816C11.991 3.80072 12.1666 4.22464 12.1666 4.66667C12.1666 5.10869 11.991 5.53262 11.6785 5.84518C11.3659 6.15774 10.942 6.33333 10.5 6.33333H8.83329C8.39127 6.33333 7.96734 6.15774 7.65478 5.84518C7.34222 5.53262 7.16663 5.10869 7.16663 4.66667Z" stroke="#0063F2" stroke-width="1.25" stroke-linecap="round" stroke-linejoin="round"/>
<path d="M12.1667 15.5003C12.1667 16.3844 12.5179 17.2322 13.1431 17.8573C13.7682 18.4825 14.616 18.8337 15.5001 18.8337C16.3841 18.8337 17.232 18.4825 17.8571 17.8573C18.4822 17.2322 18.8334 16.3844 18.8334 15.5003C18.8334 14.6163 18.4822 13.7684 17.8571 13.1433C17.232 12.5182 16.3841 12.167 15.5001 12.167C14.616 12.167 13.7682 12.5182 13.1431 13.1433C12.5179 13.7684 12.1667 14.6163 12.1667 15.5003Z" stroke="#0063F2" stroke-width="1.25" stroke-linecap="round" stroke-linejoin="round"/>
<path d="M7.16675 9.66699H10.5001" stroke="#0063F2" stroke-width="1.25" stroke-linecap="round" stroke-linejoin="round"/>
<path d="M7.16663 13H9.66663" stroke="#0063F2" stroke-width="1.25" stroke-linecap="round" stroke-linejoin="round"/>
</g>
<defs>
<clipPath id="clip0_286_2134">
<rect width="20" height="20" fill="white" transform="translate(0.5 0.5)"/>
</clipPath>
</defs>
</svg>
