<svg width="21" height="20" viewBox="0 0 21 20" fill="none" xmlns="http://www.w3.org/2000/svg">
<g clip-path="url(#clip0_415_223)">
<path d="M7.16668 4.16675H5.50001C5.05798 4.16675 4.63406 4.34234 4.3215 4.6549C4.00894 4.96746 3.83334 5.39139 3.83334 5.83341V15.8334C3.83334 16.2754 4.00894 16.6994 4.3215 17.0119C4.63406 17.3245 5.05798 17.5001 5.50001 17.5001H10.2475" stroke="#0063F2" stroke-width="1.25" stroke-linecap="round" stroke-linejoin="round"/>
<path d="M15.5 11.6667V15.0001H18.8333" stroke="#0063F2" stroke-width="1.25" stroke-linecap="round" stroke-linejoin="round"/>
<path d="M15.5 9.16675V5.83341C15.5 5.39139 15.3244 4.96746 15.0118 4.6549C14.6993 4.34234 14.2754 4.16675 13.8333 4.16675H12.1667" stroke="#0063F2" stroke-width="1.25" stroke-linecap="round" stroke-linejoin="round"/>
<path d="M7.16666 4.16667C7.16666 3.72464 7.34225 3.30072 7.65481 2.98816C7.96737 2.67559 8.3913 2.5 8.83332 2.5H10.5C10.942 2.5 11.3659 2.67559 11.6785 2.98816C11.9911 3.30072 12.1667 3.72464 12.1667 4.16667C12.1667 4.60869 11.9911 5.03262 11.6785 5.34518C11.3659 5.65774 10.942 5.83333 10.5 5.83333H8.83332C8.3913 5.83333 7.96737 5.65774 7.65481 5.34518C7.34225 5.03262 7.16666 4.60869 7.16666 4.16667Z" stroke="#0063F2" stroke-width="1.25" stroke-linecap="round" stroke-linejoin="round"/>
<path d="M12.1667 15.0001C12.1667 15.8841 12.5178 16.732 13.143 17.3571C13.7681 17.9822 14.6159 18.3334 15.5 18.3334C16.384 18.3334 17.2319 17.9822 17.857 17.3571C18.4821 16.732 18.8333 15.8841 18.8333 15.0001C18.8333 14.116 18.4821 13.2682 17.857 12.6431C17.2319 12.0179 16.384 11.6667 15.5 11.6667C14.6159 11.6667 13.7681 12.0179 13.143 12.6431C12.5178 13.2682 12.1667 14.116 12.1667 15.0001Z" stroke="#0063F2" stroke-width="1.25" stroke-linecap="round" stroke-linejoin="round"/>
<path d="M7.16666 9.16675H10.5" stroke="#0063F2" stroke-width="1.25" stroke-linecap="round" stroke-linejoin="round"/>
<path d="M7.16666 12.5H9.66666" stroke="#0063F2" stroke-width="1.25" stroke-linecap="round" stroke-linejoin="round"/>
</g>
<defs>
<clipPath id="clip0_415_223">
<rect width="20" height="20" fill="white" transform="translate(0.5)"/>
</clipPath>
</defs>
</svg>
