<svg width="168" height="32" viewBox="0 0 168 32" fill="none" xmlns="http://www.w3.org/2000/svg">
<g clip-path="url(#clip0_371_162)">
<path d="M13.2068 8.78825C13.3194 8.67332 13.4074 8.53669 13.4655 8.38666C13.5236 8.23664 13.5506 8.07636 13.5448 7.91558V4.8428C13.5332 4.52399 13.6007 4.20726 13.7415 3.92096C13.8734 3.63196 14.0543 3.36791 14.2761 3.14047C14.503 2.92077 14.7646 2.74011 15.0505 2.60581C15.3458 2.49418 15.6569 2.42988 15.9723 2.41529C16.2904 2.40469 16.6064 2.46999 16.8941 2.60581C17.4811 2.86503 17.9501 3.33404 18.2093 3.92096C18.325 4.21509 18.3895 4.52689 18.3998 4.8428V7.91558C18.4104 8.23748 18.532 8.54581 18.744 8.78825C18.8585 8.90143 18.995 8.98984 19.1452 9.04799C19.2953 9.10614 19.4558 9.13278 19.6166 9.12626C19.9376 9.11644 20.2455 8.99717 20.4893 8.78825C20.602 8.67367 20.6897 8.53694 20.7468 8.38673C20.8039 8.23652 20.8292 8.07609 20.8212 7.91558V4.8428C20.8167 4.20854 20.685 3.58162 20.434 2.99912C20.2 2.4065 19.8343 1.87483 19.3647 1.44429C18.9221 0.99145 18.3963 0.628356 17.816 0.374964C17.2346 0.120521 16.607 -0.0112818 15.9723 -0.012207C15.3382 -0.00653422 14.7115 0.12507 14.1286 0.374964C13.536 0.608966 13.0043 0.974622 12.5738 1.44429C12.1215 1.88965 11.7585 2.41741 11.5045 2.99912C11.2514 3.58095 11.1196 4.2083 11.1173 4.8428V7.91558C11.1286 8.23622 11.2477 8.54368 11.4553 8.78825C11.5712 8.90131 11.7089 8.98958 11.8599 9.04769C12.011 9.1058 12.1724 9.13253 12.3341 9.12626C12.6566 9.1244 12.9672 9.00411 13.2068 8.78825Z" fill="#3BB990"/>
<path d="M11.5046 23.2056C11.3915 23.3215 11.3032 23.4591 11.2451 23.6102C11.187 23.7613 11.1603 23.9227 11.1665 24.0844V27.1572C11.1756 27.791 11.307 28.417 11.5537 29.0009C11.7915 29.5897 12.1567 30.1186 12.623 30.5496C13.0651 31.0057 13.5937 31.3693 14.1779 31.6189C14.7592 31.8737 15.3869 32.0055 16.0215 32.0061C16.6558 32.0015 17.2827 31.8699 17.8652 31.6189C18.4578 31.3849 18.9895 31.0192 19.42 30.5496C19.8729 30.107 20.236 29.5811 20.4894 29.0009C20.7438 28.4195 20.8756 27.7918 20.8765 27.1572V24.0844C20.8696 23.7611 20.7501 23.4502 20.5385 23.2056C20.4236 23.093 20.287 23.005 20.137 22.9469C19.9869 22.8888 19.8267 22.8618 19.6659 22.8676C19.3447 22.8764 19.0365 22.9958 18.7932 23.2056C18.6781 23.3203 18.5881 23.4576 18.5289 23.6089C18.4697 23.7602 18.4425 23.9221 18.449 24.0844V27.1572C18.4597 27.4752 18.3944 27.7912 18.2585 28.079C18.1301 28.3585 17.9579 28.6158 17.7485 28.8411C17.5194 29.0609 17.2557 29.2415 16.968 29.3757C16.6737 29.4909 16.362 29.5553 16.0461 29.5663C15.7281 29.5764 15.4122 29.5111 15.1243 29.3757C14.8385 29.2414 14.5768 29.0608 14.35 28.8411C14.1261 28.6153 13.945 28.3509 13.8153 28.0606C13.6975 27.7668 13.6309 27.455 13.6186 27.1388V24.066C13.6087 23.7432 13.4896 23.4334 13.2806 23.1872C13.1657 23.0746 13.0291 22.9866 12.879 22.9284C12.729 22.8703 12.5687 22.8434 12.4079 22.8492C12.2451 22.8313 12.0804 22.8526 11.9275 22.9114C11.7746 22.9702 11.638 23.0648 11.5291 23.1872" fill="#00A5C2"/>
<path d="M9.75918 12.8198C9.82464 12.9572 9.90501 13.087 9.99885 13.2069L12.2174 16.4088C12.3056 16.5391 12.42 16.6496 12.5533 16.7332C12.6867 16.8168 12.836 16.8717 12.9917 16.8943C13.314 16.9482 13.6448 16.8803 13.9197 16.7038C14.05 16.6141 14.1604 16.4985 14.2439 16.3642C14.3274 16.2299 14.3824 16.0798 14.4052 15.9233C14.457 15.6022 14.3869 15.2734 14.2086 15.0014L13.2867 13.6433L13.2376 13.5449H27.1266C27.4453 13.5345 27.7617 13.602 28.0484 13.7416C28.3368 13.8715 28.5991 14.0526 28.8227 14.2763C29.0445 14.5015 29.2254 14.7635 29.3574 15.0506C29.4745 15.3446 29.541 15.6563 29.5541 15.9724C29.565 16.2912 29.4974 16.6077 29.3574 16.8943C29.2217 17.1842 29.0367 17.4483 28.8105 17.6748C28.5836 17.8945 28.3219 18.0751 28.0361 18.2094C27.7408 18.3211 27.4297 18.3854 27.1143 18.3999H24.8588C24.5379 18.4098 24.23 18.529 23.9862 18.7379C23.8719 18.8529 23.7829 18.9905 23.7247 19.1418C23.6665 19.2931 23.6404 19.4548 23.6482 19.6168C23.6565 19.938 23.7759 20.2464 23.9862 20.4894C24.1007 20.6026 24.2372 20.691 24.3874 20.7492C24.5375 20.8073 24.698 20.834 24.8588 20.8274H27.0958C27.7296 20.8184 28.3557 20.687 28.9395 20.4403C29.5305 20.2033 30.0616 19.8381 30.4943 19.3709C30.9467 18.9256 31.3096 18.3978 31.5637 17.8161C31.8168 17.2343 31.9485 16.6069 31.9508 15.9724C31.9428 15.3386 31.8113 14.7123 31.5637 14.1288C31.3267 13.5377 30.9615 13.0067 30.4943 12.5739C30.049 12.1216 29.5212 11.7587 28.9395 11.5046C28.3573 11.2528 27.7302 11.1211 27.0958 11.1174H10.9268C10.6041 11.1273 10.2942 11.2465 10.048 11.4554C9.93186 11.5742 9.84178 11.7159 9.78358 11.8714C9.72537 12.027 9.70031 12.193 9.71001 12.3588C9.69967 12.5223 9.71628 12.6863 9.75918 12.8443" fill="#2067A7"/>
<path d="M22.1425 19.1803C22.0786 19.0388 21.9959 18.9065 21.8966 18.787L19.715 15.536C19.6253 15.4057 19.5097 15.2954 19.3754 15.2118C19.2411 15.1283 19.091 15.0734 18.9345 15.0505C18.6134 14.9962 18.2836 15.0666 18.0126 15.2472C17.8797 15.3383 17.7677 15.4567 17.684 15.5944C17.6003 15.7322 17.5468 15.8861 17.5271 16.0461C17.4722 16.3672 17.5426 16.6972 17.7238 16.9679L18.6456 18.3261L18.6948 18.4244H4.84267C4.52467 18.4346 4.20878 18.3693 3.92084 18.2339C3.63311 18.0997 3.36943 17.9191 3.14035 17.6993C2.92033 17.4716 2.7415 17.2076 2.61183 16.9188C2.4947 16.6248 2.42821 16.3131 2.41517 15.9969C2.40428 15.6782 2.47181 15.3616 2.61183 15.0751C2.74168 14.7882 2.92053 14.5262 3.14035 14.3008C3.36615 14.0769 3.63057 13.8958 3.92084 13.7661C4.21481 13.649 4.5265 13.5825 4.84267 13.5694H7.07352C7.39628 13.5595 7.70612 13.4404 7.95233 13.2314C8.06713 13.1175 8.15742 12.9814 8.21766 12.8313C8.2779 12.6812 8.30682 12.5204 8.30263 12.3588C8.29273 12.036 8.17356 11.7261 7.96462 11.4799C7.84979 11.3647 7.71259 11.2741 7.56145 11.2139C7.41031 11.1536 7.24844 11.125 7.08581 11.1296H4.84267C4.2088 11.1377 3.58258 11.2692 2.999 11.5168C2.40797 11.7538 1.87692 12.119 1.44417 12.5861C0.991855 13.0315 0.628891 13.5593 0.374842 14.141C0.12239 14.723 -0.00932475 15.3502 -0.0123291 15.9846C-0.00488694 16.6186 0.126646 17.2449 0.374842 17.8283C0.611819 18.4193 0.977048 18.9504 1.44417 19.3831C1.8906 19.8311 2.41829 20.1898 2.999 20.4402C3.58104 20.6926 4.20825 20.8244 4.84267 20.8274H21.024C21.3449 20.8175 21.6528 20.6983 21.8966 20.4893C22.0112 20.3756 22.101 20.2393 22.1602 20.0891C22.2194 19.9389 22.2469 19.778 22.2408 19.6167C22.2438 19.4654 22.2101 19.3157 22.1425 19.1803Z" fill="#1AD2E6"/>
<path d="M163.491 14.5158C162.262 14.5158 161.205 15.1303 160.135 16.4578V22.6033C160.138 22.7211 160.113 22.8379 160.063 22.9446C160.013 23.0512 159.939 23.1448 159.846 23.2179C159.758 23.3071 159.651 23.3755 159.533 23.418C159.415 23.4605 159.289 23.4762 159.164 23.4637C159.05 23.4679 158.937 23.4481 158.831 23.4058C158.725 23.3635 158.629 23.2995 158.55 23.2179C158.467 23.1395 158.401 23.0439 158.359 22.9377C158.317 22.8316 158.298 22.7175 158.304 22.6033V9.37192C158.302 9.12257 158.389 8.88078 158.55 8.68976C158.628 8.60659 158.724 8.54152 158.83 8.49906C158.936 8.45661 159.05 8.4378 159.164 8.44393C159.412 8.45055 159.651 8.53674 159.846 8.68976C159.942 8.77532 160.017 8.88078 160.067 8.99867C160.117 9.11656 160.14 9.24399 160.135 9.37192V14.6633C160.549 14.1919 161.024 13.7785 161.549 13.4341C162.206 13.0256 162.957 12.7928 163.73 12.7581C164.312 12.7366 164.891 12.835 165.433 13.047C165.872 13.2382 166.255 13.5387 166.545 13.9196C167.201 14.7104 167.546 15.7134 167.516 16.7405V22.5173C167.519 22.6351 167.494 22.7519 167.444 22.8585C167.394 22.9652 167.32 23.0587 167.227 23.1319C167.139 23.2211 167.032 23.2894 166.914 23.332C166.796 23.3745 166.67 23.3901 166.545 23.3777C166.317 23.3764 166.097 23.2886 165.931 23.1319C165.847 23.0534 165.782 22.9578 165.74 22.8517C165.697 22.7456 165.679 22.6314 165.685 22.5173V16.9863C165.718 16.3445 165.529 15.7109 165.15 15.1918C164.953 14.9511 164.7 14.7629 164.412 14.6439C164.125 14.5249 163.813 14.4788 163.503 14.5096M154.991 21.9949C155.253 22 155.514 21.9669 155.766 21.8966C155.922 21.841 156.086 21.8079 156.251 21.7983C156.342 21.7933 156.432 21.8083 156.516 21.8423C156.6 21.8763 156.675 21.9284 156.737 21.9949C156.817 22.0752 156.881 22.1712 156.923 22.2768C156.965 22.3825 156.986 22.4957 156.983 22.6095C156.99 22.7348 156.956 22.8589 156.886 22.9631C156.816 23.0673 156.714 23.146 156.595 23.1872C156.133 23.4378 155.616 23.5727 155.09 23.5805C154.716 23.5909 154.342 23.5745 153.971 23.5313C153.626 23.4913 153.294 23.3737 153 23.1872C152.624 22.9449 152.321 22.6046 152.124 22.2028C151.927 21.801 151.843 21.353 151.882 20.9072V14.6141H150.425C150.373 14.6188 150.321 14.612 150.272 14.5942C150.223 14.5765 150.178 14.5481 150.141 14.5111C150.104 14.4742 150.076 14.4296 150.058 14.3805C150.04 14.3314 150.033 14.2789 150.038 14.2269C150.035 14.1568 150.051 14.0871 150.086 14.0262C150.121 13.9652 150.173 13.9155 150.235 13.8828L153 11.1664C153.148 11.0189 153.24 10.9698 153.338 10.9698C153.395 10.9734 153.45 10.9883 153.501 11.0137C153.551 11.039 153.596 11.0742 153.633 11.1173C153.668 11.1561 153.695 11.202 153.71 11.2518C153.726 11.3016 153.731 11.3542 153.725 11.4061V13.0101H156.024C156.231 13.028 156.423 13.1228 156.564 13.2758C156.704 13.4289 156.782 13.629 156.782 13.8367C156.782 14.0444 156.704 14.2445 156.564 14.3975C156.423 14.5506 156.231 14.6454 156.024 14.6633H153.738V20.8088C153.709 21.0148 153.739 21.2248 153.825 21.4142C153.911 21.6036 154.049 21.7645 154.223 21.8782C154.471 21.9576 154.731 21.997 154.991 21.9949ZM146.689 9.37192C146.684 9.11746 146.769 8.86938 146.928 8.67132C147.017 8.58247 147.124 8.51434 147.242 8.47183C147.36 8.42932 147.486 8.4135 147.611 8.4255C147.858 8.43339 148.097 8.51944 148.293 8.67132C148.38 8.76083 148.446 8.8682 148.488 8.986C148.529 9.1038 148.544 9.2292 148.532 9.35348V22.5788C148.53 22.806 148.445 23.0247 148.293 23.1933C148.204 23.2822 148.097 23.3503 147.979 23.3928C147.861 23.4353 147.735 23.4511 147.611 23.4391C147.363 23.4325 147.124 23.3463 146.928 23.1933C146.847 23.1136 146.784 23.0176 146.743 22.9117C146.701 22.8058 146.683 22.6923 146.689 22.5788V9.37192ZM136.973 20.3479C136.973 21.4172 137.698 21.9519 139.105 21.9519C139.738 21.957 140.361 21.7891 140.906 21.4664C141.415 21.1888 141.875 20.8273 142.264 20.3971V18.6948H140.045C139.283 18.6636 138.522 18.7956 137.815 19.0819C137.558 19.1758 137.338 19.3493 137.186 19.577C137.035 19.8047 136.96 20.0747 136.973 20.3479ZM136.358 13.5509C137.478 13.0692 138.685 12.8223 139.904 12.8257C140.498 12.7906 141.094 12.8845 141.648 13.1009C142.203 13.3173 142.704 13.6511 143.118 14.0794C143.808 14.8314 144.175 15.8249 144.138 16.8449V22.5788C144.14 22.6963 144.114 22.8127 144.064 22.9191C144.014 23.0255 143.941 23.1192 143.849 23.1933C143.761 23.2822 143.654 23.3503 143.536 23.3928C143.418 23.4353 143.292 23.4511 143.167 23.4391C142.939 23.4355 142.72 23.348 142.553 23.1933C142.472 23.1136 142.408 23.0176 142.367 22.9117C142.326 22.8058 142.307 22.6923 142.313 22.5788V22.0441C141.874 22.4602 141.385 22.8195 140.857 23.1134C140.132 23.4635 139.332 23.6302 138.527 23.5989C137.674 23.6156 136.844 23.3206 136.192 22.7693C135.879 22.4894 135.63 22.1451 135.463 21.7601C135.295 21.375 135.213 20.9583 135.221 20.5384C135.206 20.0817 135.299 19.6279 135.493 19.2143C135.688 18.8008 135.978 18.4395 136.34 18.1601C137.388 17.4707 138.634 17.1467 139.886 17.2382H142.344V17.0908C142.377 16.737 142.334 16.3802 142.216 16.0449C142.098 15.7097 141.909 15.4039 141.662 15.1488C141.075 14.7135 140.35 14.5061 139.621 14.5649C138.696 14.5823 137.779 14.7462 136.905 15.0504C136.781 15.0937 136.649 15.1105 136.518 15.0996C136.435 15.0999 136.354 15.0825 136.278 15.0486C136.203 15.0147 136.136 14.965 136.081 14.9029C135.994 14.8147 135.927 14.7085 135.885 14.5918C135.842 14.4752 135.825 14.3507 135.836 14.2269C135.844 14.0739 135.898 13.9269 135.992 13.8052C136.085 13.6835 136.212 13.5927 136.358 13.5448V13.5509ZM129.315 14.3744C128.768 14.3474 128.226 14.486 127.759 14.7722C127.291 15.0583 126.922 15.4787 126.697 15.9784C126.474 16.3965 126.356 16.8626 126.353 17.3366H132.327C132.324 16.9018 132.227 16.4728 132.042 16.0792C131.858 15.6855 131.59 15.3366 131.257 15.0566C130.71 14.5989 130.016 14.3544 129.303 14.3683L129.315 14.3744ZM126.353 18.8422C126.407 19.6736 126.771 20.4544 127.373 21.0301C128.049 21.6025 128.916 21.8969 129.801 21.8536C130.704 21.8716 131.6 21.689 132.425 21.3189C132.607 21.1979 132.821 21.1318 133.039 21.1284C133.132 21.1327 133.224 21.1563 133.307 21.1975C133.391 21.2388 133.465 21.2968 133.525 21.3681C133.66 21.4964 133.745 21.6685 133.765 21.8536C133.767 22.0106 133.728 22.1655 133.651 22.3025C133.575 22.4396 133.463 22.5539 133.328 22.6341C133.039 22.7754 132.794 22.9229 132.554 23.0212L131.823 23.3101C131.126 23.5002 130.405 23.5831 129.684 23.5559C128.975 23.5931 128.266 23.4877 127.599 23.2459C126.932 23.0042 126.32 22.631 125.8 22.1486C124.878 21.2206 124.442 19.8624 124.442 18.1662C124.394 16.8223 124.806 15.5022 125.609 14.4236C126.047 13.8738 126.611 13.4373 127.252 13.1507C127.894 12.864 128.595 12.7357 129.297 12.7766C129.974 12.7503 130.648 12.8757 131.27 13.1437C131.892 13.4116 132.446 13.8154 132.892 14.3252C133.73 15.3319 134.167 16.6117 134.121 17.9204C134.12 18.1479 134.035 18.367 133.881 18.535C133.795 18.6257 133.687 18.6947 133.569 18.7364C133.45 18.778 133.324 18.7911 133.199 18.7746L126.304 18.8238L126.353 18.8422ZM121.308 9.13224C121.562 9.13554 121.805 9.23937 121.984 9.42108C122.079 9.50686 122.155 9.61221 122.206 9.72994C122.256 9.84767 122.281 9.975 122.279 10.1032V22.6279C122.28 22.7461 122.254 22.8631 122.203 22.9697C122.152 23.0763 122.077 23.1696 121.984 23.2425C121.897 23.3316 121.791 23.3999 121.674 23.4425C121.557 23.485 121.431 23.5007 121.308 23.4883C121.079 23.4853 120.86 23.3977 120.693 23.2425C120.61 23.1641 120.545 23.0684 120.502 22.9623C120.46 22.8562 120.441 22.7421 120.447 22.6279V17.2382H112.698V22.6279C112.699 22.7455 112.674 22.8618 112.623 22.9683C112.573 23.0747 112.5 23.1684 112.409 23.2425C112.321 23.3317 112.213 23.4001 112.095 23.4426C111.977 23.4851 111.851 23.5007 111.727 23.4883C111.498 23.4847 111.28 23.3972 111.112 23.2425C111.031 23.1628 110.968 23.0668 110.926 22.9609C110.885 22.8549 110.867 22.7415 110.872 22.6279V10.0971C110.882 9.85082 110.966 9.61315 111.112 9.41494C111.187 9.32493 111.281 9.25244 111.387 9.20255C111.494 9.15266 111.609 9.12656 111.727 9.12609C111.983 9.12911 112.228 9.23285 112.409 9.41494C112.502 9.50177 112.576 9.60746 112.626 9.72505C112.676 9.84263 112.7 9.96943 112.698 10.0971V15.4868H120.416V10.0971C120.424 9.84946 120.51 9.61068 120.662 9.41494C120.726 9.30846 120.821 9.22387 120.934 9.17231C121.047 9.12075 121.173 9.10463 121.295 9.12609L121.308 9.13224ZM100.671 14.5219C99.4416 14.5219 98.3845 15.1365 97.3152 16.4639V22.6095C97.3178 22.7273 97.2931 22.8441 97.243 22.9507C97.1929 23.0573 97.1187 23.1509 97.0264 23.224C96.9382 23.3132 96.8311 23.3816 96.7131 23.4241C96.5951 23.4667 96.469 23.4823 96.3442 23.4699C96.1156 23.4686 95.896 23.3808 95.7296 23.224C95.6465 23.1456 95.5814 23.05 95.5389 22.9439C95.4965 22.8377 95.4777 22.7236 95.4838 22.6095V9.37192C95.4822 9.12257 95.5694 8.88078 95.7296 8.68976C95.8081 8.60659 95.9037 8.54152 96.0098 8.49906C96.1159 8.45661 96.2301 8.4378 96.3442 8.44393C96.59 8.44524 96.8289 8.5249 97.0264 8.67132C97.1216 8.75688 97.1968 8.86234 97.2468 8.98023C97.2967 9.09812 97.32 9.22555 97.3152 9.35348V14.6448C97.729 14.1735 98.2045 13.7601 98.7287 13.4157C99.3863 13.0079 100.137 12.7752 100.91 12.7397C101.492 12.7182 102.071 12.8165 102.613 13.0285C103.052 13.2198 103.435 13.5202 103.725 13.9012C104.381 14.692 104.726 15.6949 104.696 16.722V22.4989C104.699 22.6167 104.674 22.7335 104.624 22.8401C104.574 22.9467 104.5 23.0403 104.407 23.1134C104.319 23.2026 104.212 23.271 104.094 23.3135C103.976 23.3561 103.85 23.3717 103.725 23.3592C103.611 23.3634 103.498 23.3437 103.392 23.3013C103.286 23.259 103.19 23.195 103.11 23.1134C103.027 23.035 102.962 22.9394 102.92 22.8333C102.877 22.7271 102.859 22.613 102.865 22.4989V16.9678C102.897 16.3261 102.709 15.6925 102.33 15.1733C102.135 14.9245 101.878 14.7324 101.584 14.6167C101.29 14.5011 100.97 14.4662 100.658 14.5158L100.671 14.5219ZM89.7439 21.8966C91.2495 21.8966 91.9747 21.4111 91.9747 20.4401C91.9772 20.2961 91.9372 20.1545 91.8596 20.0331C91.7819 19.9118 91.6702 19.816 91.5384 19.7579C91.1768 19.5901 90.8053 19.4444 90.426 19.3216C89.9835 19.1803 89.498 19.0819 88.9695 18.9344C88.4624 18.8151 87.9714 18.6356 87.5069 18.3998C87.0741 18.1761 86.6947 17.8616 86.3945 17.4779C86.0979 17.0885 85.9439 16.6091 85.9582 16.1198C85.9532 15.6401 86.0344 15.1634 86.1979 14.7124C86.3477 14.314 86.6 13.9621 86.9292 13.6923C87.7832 13.0208 88.857 12.6921 89.9405 12.7704C90.9485 12.7606 91.9506 12.9248 92.9027 13.2559C93.0835 13.3101 93.2385 13.428 93.339 13.5878C93.434 13.7316 93.4833 13.9009 93.4804 14.0733C93.4645 14.2738 93.3798 14.4627 93.2407 14.6079C93.1314 14.7409 92.9752 14.8267 92.8044 14.8476C92.6236 14.8343 92.4445 14.8035 92.2697 14.7554C91.5755 14.551 90.8546 14.4516 90.131 14.4605C89.5249 14.429 88.9216 14.5628 88.3857 14.8476C88.2155 14.9483 88.073 15.0898 87.9711 15.2593C87.8691 15.4288 87.811 15.621 87.8019 15.8186C87.7866 15.9843 87.8197 16.1508 87.8971 16.2981C87.9746 16.4453 88.093 16.567 88.2382 16.6483C88.5926 16.8371 88.968 16.9835 89.3567 17.0846C89.793 17.2321 90.2785 17.3243 90.8132 17.4718C91.3103 17.5965 91.7972 17.7588 92.2697 17.9573C92.7615 18.1662 93.1783 18.5195 93.4647 18.9706C93.7511 19.4217 93.8938 19.9492 93.8737 20.4831C93.8766 20.8887 93.7913 21.29 93.6236 21.6593C93.4559 22.0286 93.2099 22.357 92.9027 22.6218C92.0446 23.2437 90.9988 23.5518 89.9405 23.4944C88.6512 23.5214 87.3781 23.2031 86.2532 22.5726C86.149 22.5075 86.0633 22.4169 86.0042 22.3093C85.945 22.2018 85.9143 22.0808 85.9152 21.958C85.927 21.7328 86.0111 21.5173 86.1548 21.3435C86.2149 21.2722 86.289 21.2142 86.3725 21.1729C86.4561 21.1317 86.5473 21.1082 86.6403 21.1038C86.852 21.1139 87.0601 21.1618 87.2549 21.2452C87.9934 21.7127 88.8586 21.9403 89.7316 21.8966H89.7439ZM79.8188 14.3683C79.2708 14.3408 78.7273 14.4792 78.2592 14.7653C77.791 15.0515 77.42 15.4721 77.1946 15.9723C76.9762 16.3919 76.8603 16.8574 76.8566 17.3304H82.8301C82.8274 16.8957 82.7304 16.4667 82.5458 16.073C82.3612 15.6794 82.0933 15.3305 81.7608 15.0504C81.2111 14.6065 80.5253 14.3656 79.8188 14.3683ZM76.8074 18.8361C76.8614 19.6674 77.2254 20.4482 77.8276 21.0239C78.503 21.5963 79.3708 21.8907 80.2551 21.8474C81.1586 21.8655 82.0548 21.6829 82.8792 21.3128C83.0616 21.1917 83.2749 21.1256 83.4938 21.1223C83.5869 21.1266 83.6781 21.1501 83.7616 21.1914C83.8451 21.2326 83.9193 21.2907 83.9793 21.3619C84.1141 21.4903 84.1991 21.6623 84.219 21.8474C84.2215 22.0044 84.1824 22.1593 84.1058 22.2964C84.0292 22.4334 83.9177 22.5478 83.7826 22.6279C83.4938 22.7693 83.248 22.9168 83.0083 23.0151L82.277 23.3039C81.5807 23.494 80.8596 23.5769 80.1383 23.5498C79.4297 23.5873 78.7207 23.482 78.0535 23.2403C77.3863 22.9985 76.7745 22.6252 76.2543 22.1424C75.3325 21.2144 74.8961 19.8563 74.8961 18.1601C74.8488 16.8161 75.2607 15.4961 76.0638 14.4174C76.5009 13.8669 77.0643 13.4298 77.7061 13.1431C78.348 12.8564 79.0494 12.7286 79.7512 12.7704C80.428 12.7441 81.1021 12.8696 81.7242 13.1375C82.3462 13.4055 82.9005 13.8092 83.3463 14.3191C84.1981 15.3113 84.6553 16.5822 84.6307 17.8897C84.63 18.1172 84.5445 18.3363 84.3911 18.5042C84.3042 18.595 84.1972 18.664 84.0786 18.7057C83.9601 18.7473 83.8334 18.7604 83.7089 18.7439L76.8136 18.7931L76.8074 18.8361ZM70.2562 14.7124C71.2272 13.4464 72.2474 12.8196 73.4581 12.8196H73.5564C73.7837 12.8215 74.0024 12.9068 74.171 13.0593C74.3267 13.2524 74.4114 13.4933 74.4106 13.7414C74.4087 13.9687 74.3234 14.1874 74.171 14.356C73.9794 14.5153 73.738 14.6023 73.4888 14.6018H73.3905C72.7577 14.5848 72.1339 14.7536 71.596 15.0873C71.0669 15.4198 70.6195 15.8672 70.287 16.3963V22.5419C70.2884 22.6601 70.2625 22.7771 70.2114 22.8837C70.1602 22.9903 70.0851 23.0836 69.992 23.1564C69.905 23.2455 69.799 23.3139 69.682 23.3564C69.565 23.399 69.4399 23.4146 69.316 23.4023C69.0877 23.3992 68.8688 23.3116 68.7014 23.1564C68.6182 23.078 68.5532 22.9824 68.5107 22.8763C68.4683 22.7701 68.4495 22.656 68.4556 22.5419V13.8336C68.4622 13.5876 68.5485 13.3504 68.7014 13.1576C68.7776 13.0683 68.8717 12.9959 68.9775 12.9451C69.0833 12.8943 69.1986 12.8662 69.316 12.8626C69.4427 12.864 69.5678 12.8909 69.6839 12.9415C69.8 12.9922 69.9048 13.0657 69.992 13.1576C70.0879 13.2416 70.164 13.3458 70.215 13.4626C70.266 13.5795 70.2906 13.7062 70.287 13.8336L70.2378 14.7124H70.2562ZM66.7102 10.2446L65.6839 10.0971C65.2471 10.06 64.8113 10.1799 64.4548 10.4351C64.2847 10.6341 64.158 10.8665 64.0829 11.1173C64.0078 11.3681 63.9858 11.6318 64.0185 11.8916V13.0101H66.5443C66.6584 13.0048 66.7722 13.024 66.8783 13.0664C66.9843 13.1088 67.08 13.1734 67.1589 13.2559C67.3124 13.4102 67.3985 13.619 67.3985 13.8367C67.3985 14.0543 67.3124 14.2631 67.1589 14.4174C67.08 14.4999 66.9843 14.5646 66.8783 14.607C66.7722 14.6494 66.6584 14.6686 66.5443 14.6633H64.0185V22.6525C64.0166 22.8798 63.9313 23.0985 63.7788 23.2671C63.6906 23.3563 63.5836 23.4246 63.4655 23.4672C63.3475 23.5097 63.2215 23.5253 63.0966 23.5129C62.8506 23.5063 62.6134 23.42 62.4206 23.2671C62.3375 23.1886 62.2724 23.093 62.2299 22.9869C62.1875 22.8808 62.1687 22.7666 62.1748 22.6525V14.6633H60.9457C60.7388 14.6454 60.5461 14.5506 60.4057 14.3975C60.2653 14.2445 60.1874 14.0444 60.1874 13.8367C60.1874 13.629 60.2653 13.4289 60.4057 13.2758C60.5461 13.1228 60.7388 13.028 60.9457 13.0101H62.1748V11.8486C62.1472 11.3462 62.2266 10.8438 62.4078 10.3744C62.5889 9.90509 62.8677 9.47959 63.2257 9.12609C63.4949 8.86448 63.8148 8.6608 64.1657 8.52762C64.5166 8.39444 64.8911 8.33459 65.266 8.35175C65.8691 8.35163 66.4649 8.48379 67.0114 8.73892C67.3064 8.92944 67.4969 9.12609 67.4969 9.35348C67.5041 9.5739 67.437 9.79035 67.3064 9.96804C67.1452 10.1222 66.938 10.2194 66.7164 10.2446H66.7102ZM54.7694 14.3683C54.2242 14.3429 53.684 14.4824 53.2192 14.7685C52.7544 15.0546 52.3866 15.4741 52.1637 15.9723C51.9404 16.3903 51.8223 16.8565 51.8195 17.3304H57.793C57.7903 16.8957 57.6933 16.4667 57.5087 16.073C57.3241 15.6794 57.0562 15.3305 56.7237 15.0504C56.1758 14.5949 55.4818 14.3527 54.7694 14.3683ZM51.7581 18.8361C51.812 19.6674 52.1761 20.4482 52.7782 21.0239C53.4615 21.6038 54.3417 21.8987 55.2365 21.8474C56.14 21.8655 57.0362 21.6829 57.8606 21.3128C58.043 21.1917 58.2563 21.1256 58.4752 21.1223C58.5682 21.1266 58.6594 21.1501 58.743 21.1914C58.8265 21.2326 58.9006 21.2907 58.9607 21.3619C59.0955 21.4903 59.1804 21.6623 59.2004 21.8474C59.2028 22.0044 59.1638 22.1593 59.0872 22.2964C59.0105 22.4334 58.8991 22.5478 58.764 22.6279C58.4752 22.7693 58.2294 22.9168 57.9897 23.0151L57.2584 23.3039C56.5641 23.4936 55.845 23.5765 55.1258 23.5498C54.4162 23.5874 53.7063 23.4823 53.0381 23.2405C52.3699 22.9988 51.757 22.6254 51.2357 22.1424C50.3139 21.2144 49.8775 19.8563 49.8775 18.1601C49.8302 16.8161 50.242 15.4961 51.0452 14.4174C51.483 13.8677 52.0464 13.4311 52.6881 13.1445C53.3298 12.8579 54.0309 12.7296 54.7325 12.7704C55.4063 12.7469 56.0768 12.8737 56.6955 13.1416C57.3141 13.4094 57.8654 13.8117 58.3092 14.3191C59.1468 15.3257 59.5844 16.6056 59.5384 17.9143C59.5376 18.1418 59.4522 18.3609 59.2987 18.5288C59.2118 18.6196 59.1048 18.6886 58.9863 18.7302C58.8677 18.7719 58.7411 18.785 58.6165 18.7685L51.7212 18.8177L51.7581 18.8361ZM42.6319 16.1198C43.6014 16.1487 44.5602 15.9106 45.4035 15.4315C45.7408 15.2225 46.0171 14.9285 46.2048 14.579C46.3925 14.2295 46.4849 13.8368 46.4729 13.4403C46.4913 13.0897 46.4262 12.7398 46.283 12.4193C46.1399 12.0988 45.9227 11.8169 45.6494 11.5966C44.6989 11.0777 43.6201 10.841 42.5397 10.9145H38.9384V16.046L42.6257 16.0952L42.6319 16.1198ZM48.1629 22.5788C48.1617 22.8073 48.0738 23.0269 47.9171 23.1933C47.8301 23.2824 47.7241 23.3507 47.6071 23.3933C47.4901 23.4359 47.365 23.4515 47.2411 23.4391C46.9917 23.4407 46.7499 23.3536 46.5589 23.1933C46.3906 23.0095 46.3022 22.7663 46.3131 22.5173V21.9027C46.3595 21.0652 46.2276 20.2273 45.9259 19.4445C45.7117 18.9449 45.3574 18.518 44.9058 18.2154C44.3637 17.8962 43.7394 17.7444 43.1112 17.7791H38.8954V22.4927C38.8968 22.6109 38.871 22.7279 38.8198 22.8345C38.7686 22.9411 38.6935 23.0344 38.6004 23.1073C38.5134 23.1964 38.4074 23.2647 38.2904 23.3073C38.1734 23.3498 38.0483 23.3655 37.9244 23.3531C37.6962 23.3501 37.4772 23.2625 37.3098 23.1073C37.2267 23.0289 37.1616 22.9332 37.1191 22.8271C37.0767 22.721 37.0579 22.6069 37.064 22.4927V10.0971C37.0719 9.84946 37.1579 9.61068 37.3098 9.41494C37.3873 9.32762 37.4817 9.25698 37.5874 9.20732C37.6931 9.15766 37.8077 9.13003 37.9244 9.12609H42.6811C44.5247 9.12609 45.9321 9.51531 46.9031 10.2938C47.3334 10.6547 47.6756 11.1092 47.9035 11.6226C48.1315 12.136 48.2391 12.6946 48.2182 13.2559C48.2129 14.0726 47.9523 14.8672 47.473 15.5284C46.9936 16.1896 46.3194 16.6843 45.5449 16.9433C46.0526 17.0909 46.5148 17.3643 46.8886 17.7382C47.2625 18.112 47.5359 18.5742 47.6836 19.0819C47.9811 19.8904 48.1289 20.7463 48.1199 21.6078L48.1691 22.5788H48.1629Z" fill="#5A5A5A"/>
</g>
<defs>
<clipPath id="clip0_371_162">
<rect width="167.522" height="32" fill="white"/>
</clipPath>
</defs>
</svg>
