<svg width="17" height="21" viewBox="0 0 17 21" fill="none" xmlns="http://www.w3.org/2000/svg">
<path d="M4.52537 12.5498H0.866455V2.69467H2.21661" stroke="white" stroke-miterlimit="10" stroke-linecap="round" stroke-linejoin="round"/>
<path d="M14.7768 2.69467H16.1335V12.5498H13.4802" stroke="white" stroke-miterlimit="10" stroke-linecap="round" stroke-linejoin="round"/>
<path d="M12.7629 10.4893H14.7196V1.37171H9.75085C9.06006 1.37171 8.50004 1.93403 8.50004 2.62764C8.50004 1.93403 7.94002 1.37171 7.24923 1.37171H2.2804V10.4893H4.7662H5.20521" stroke="white" stroke-miterlimit="10" stroke-linecap="round" stroke-linejoin="round"/>
<path d="M8.5 2.62771V8.41699V2.62771Z" fill="white"/>
<path d="M8.5 2.62771V8.41699" stroke="white" stroke-miterlimit="10" stroke-linecap="round" stroke-linejoin="round"/>
<path d="M10.5361 3.6582H12.8971H10.5361Z" fill="white"/>
<path d="M10.5361 3.6582H12.8971" stroke="white" stroke-miterlimit="10" stroke-linecap="round" stroke-linejoin="round"/>
<path d="M10.5361 5.7832H12.8971H10.5361Z" fill="white"/>
<path d="M10.5361 5.7832H12.8971" stroke="white" stroke-miterlimit="10" stroke-linecap="round" stroke-linejoin="round"/>
<path d="M10.5361 7.90723H12.8971H10.5361Z" fill="white"/>
<path d="M10.5361 7.90723H12.8971" stroke="white" stroke-miterlimit="10" stroke-linecap="round" stroke-linejoin="round"/>
<path d="M4.10291 3.6582H6.46388H4.10291Z" fill="white"/>
<path d="M4.10291 3.6582H6.46388" stroke="white" stroke-miterlimit="10" stroke-linecap="round" stroke-linejoin="round"/>
<path d="M4.10303 5.7832H6.464H4.10303Z" fill="white"/>
<path d="M4.10303 5.7832H6.464" stroke="white" stroke-miterlimit="10" stroke-linecap="round" stroke-linejoin="round"/>
<path d="M4.10291 7.90723H6.46388H4.10291Z" fill="white"/>
<path d="M4.10291 7.90723H6.46388" stroke="white" stroke-miterlimit="10" stroke-linecap="round" stroke-linejoin="round"/>
<path d="M12.1486 16.067L12.8335 16.752L12.1486 16.067Z" fill="white"/>
<path d="M12.1486 16.067L12.8335 16.752" stroke="white" stroke-miterlimit="10" stroke-linecap="round" stroke-linejoin="round"/>
<path d="M15.7111 18.4822L14.5644 19.6289L12.3097 17.3743L13.4564 16.2275L15.7111 18.4822Z" stroke="white" stroke-miterlimit="10" stroke-linecap="round" stroke-linejoin="round"/>
<path d="M12.0964 9.77185C13.8198 11.4953 13.8198 14.2896 12.0964 16.0131C10.3729 17.7365 7.57858 17.7365 5.85508 16.0131C4.13164 14.2896 4.13164 11.4953 5.85508 9.77185C7.57858 8.04838 10.3729 8.04838 12.0964 9.77185Z" stroke="white" stroke-miterlimit="10" stroke-linecap="round" stroke-linejoin="round"/>
</svg>
