<svg width="32" height="32" viewBox="0 0 32 32" fill="none" xmlns="http://www.w3.org/2000/svg">
<g clip-path="url(#clip0_1084_6328)">
<path d="M32 16C32 24.8366 24.8366 32 16 32C7.16344 32 0 24.8366 0 16C0 7.16344 7.16344 0 16 0C24.8366 0 32 7.16344 32 16ZM24.0707 26.192L5.808 7.92931C4.04994 10.1464 3 12.9506 3 16C3 23.1797 8.82031 29 16 29C19.0494 29 21.8536 27.9501 24.0707 26.192ZM26.192 24.0707C27.9501 21.8535 29 19.0494 29 16C29 8.82031 23.1797 3 16 3C12.9506 3 10.1465 4.04994 7.92931 5.808L17.1213 15L18 16L18.5 16.5L19 17L26.192 24.0707Z" fill="#808F9F"/>
<path d="M5.84 20V10.2H9.088C9.76467 10.2 10.397 10.3283 10.985 10.585C11.5777 10.837 12.098 11.1893 12.546 11.642C12.9987 12.09 13.351 12.6103 13.603 13.203C13.8597 13.791 13.988 14.4233 13.988 15.1C13.988 15.7767 13.8597 16.4113 13.603 17.004C13.351 17.592 12.9987 18.1123 12.546 18.565C12.098 19.013 11.5777 19.3653 10.985 19.622C10.397 19.874 9.76467 20 9.088 20H5.84ZM7.548 18.292H9.088C9.522 18.292 9.93033 18.2103 10.313 18.047C10.7003 17.879 11.041 17.6503 11.335 17.361C11.629 17.067 11.86 16.7287 12.028 16.346C12.196 15.9587 12.28 15.5433 12.28 15.1C12.28 14.6567 12.196 14.2437 12.028 13.861C11.86 13.4783 11.629 13.14 11.335 12.846C11.041 12.552 10.7027 12.3233 10.32 12.16C9.93733 11.992 9.52667 11.908 9.088 11.908H7.548V18.292ZM16.4477 20L18.3517 10.2H19.7657L22.1527 16.479L24.5397 10.2H25.9537L27.8577 20H26.1147L24.9387 13.938L22.7337 19.776H21.5647L19.3597 13.938L18.1907 20H16.4477Z" fill="#808F9F"/>
</g>
<defs>
<clipPath id="clip0_1084_6328">
<rect width="32" height="32" fill="white"/>
</clipPath>
</defs>
</svg>

