<svg width="32" height="32" viewBox="0 0 32 32" fill="none" xmlns="http://www.w3.org/2000/svg">
<path d="M32 16C32 24.8366 24.8366 32 16 32C7.16344 32 0 24.8366 0 16C0 7.16344 7.16344 0 16 0C24.8366 0 32 7.16344 32 16ZM24.0707 26.192L5.808 7.92931C4.04994 10.1464 3 12.9506 3 16C3 23.1797 8.82031 29 16 29C19.0494 29 21.8536 27.9501 24.0707 26.192ZM21.1213 19L26.192 24.0707C27.9501 21.8535 29 19.0494 29 16C29 8.82031 23.1797 3 16 3C12.9506 3 10.1465 4.04994 7.92931 5.808L17.1213 15H25C25.5557 15.0034 26 15.4497 26 16V18C26 18.5502 25.5557 18.9966 25 19H21.1213ZM10.0503 15L14.0503 19H7C6.44769 19 6 18.5523 6 18V16C6 15.4487 6.446 15.0017 7 15H10.0503ZM17.5 6C17.7781 6.00206 17.9959 6.22975 18.0797 6.49162C18.3394 7.30337 19.1914 8 20 8C21.8403 8 23.4161 9.34944 23.8994 11.4396C23.9674 11.7336 23.7326 12 23.4309 12H22.5312C22.2551 12 22.0368 11.7714 21.954 11.5079C21.6966 10.6886 20.8374 10.0312 20 10.0312C18.1597 10.0025 16.5839 8.65075 16.1006 6.56038C16.0329 6.26744 16.2659 6.00175 16.5691 6H17.5Z" fill="#F22C00"/>
</svg> 
