<svg width="32" height="32" viewBox="0 0 32 32" fill="none" xmlns="http://www.w3.org/2000/svg">
<g clip-path="url(#clip0_7_961)">
<path d="M32 16C32 24.8366 24.8366 32 16 32C7.16344 32 0 24.8366 0 16C0 7.16344 7.16344 0 16 0C24.8366 0 32 7.16344 32 16ZM24.0707 26.192L5.808 7.92931C4.04994 10.1464 3 12.9506 3 16C3 23.1797 8.82031 29 16 29C19.0494 29 21.8536 27.9501 24.0707 26.192ZM26.192 24.0707C27.9501 21.8535 29 19.0494 29 16C29 8.82031 23.1797 3 16 3C12.9506 3 10.1465 4.04994 7.92931 5.808L17.1213 15L18 16L18.5 16.5L19 17L26.192 24.0707Z" fill="#808F9F"/>
<path fill-rule="evenodd" clip-rule="evenodd" d="M26.4856 13.0643C26.4852 12.6391 26.1403 12.2946 25.715 12.295L15.8417 12.303C14.5375 12.3041 14.2146 10.49 15.4391 10.041L16.7721 9.55227C17.2592 9.37371 17.3989 8.75147 17.035 8.38169C16.8391 8.18266 16.5451 8.11616 16.2826 8.21159L9.294 10.7524C7.00754 11.5836 5.48616 13.7574 5.48816 16.1903C5.49077 19.3831 8.08119 21.9693 11.274 21.9667L17.7277 21.9613C18.0498 21.9611 18.3108 21.6997 18.3105 21.3775L18.3102 21.0043C18.31 20.6821 18.0486 20.4211 17.7264 20.4214L15.5472 20.4232L15.5462 19.2565L19.6918 19.2531C20.014 19.2529 20.2749 18.9915 20.2747 18.6693L20.2743 18.296C20.2741 17.9739 20.0127 17.7129 19.6905 17.7132L16.8748 17.7155L16.8738 16.5488L20.1305 16.5461C20.4526 16.5459 20.7136 16.2845 20.7133 15.9623L20.713 15.589C20.7127 15.2668 20.4514 15.0059 20.1292 15.0062L16.8725 15.0088L16.8716 13.8422L25.7162 13.8349C26.1415 13.8346 26.4859 13.4896 26.4856 13.0643ZM21.7796 15.0048L25.7172 15.0016C26.7868 15.0007 27.6531 14.133 27.6523 13.0634C27.6514 11.9938 26.7836 11.1274 25.714 11.1283L15.8407 11.1364L17.1737 10.6477C18.4572 10.1771 18.8254 8.53756 17.8665 7.56328C17.3503 7.03886 16.5756 6.86374 15.884 7.11516L8.89541 9.65587C6.14749 10.6549 4.31909 13.2673 4.32149 16.1912C4.32463 20.0284 7.4378 23.1365 11.2749 23.1333L17.7286 23.128C18.6951 23.1272 19.478 22.3431 19.4772 21.3766L19.4769 21.0033C19.4767 20.7988 19.4415 20.6025 19.3769 20.4201L19.6927 20.4198C20.6593 20.419 21.4421 19.6348 21.4413 18.6684L21.441 18.295C21.4407 17.9542 21.343 17.6362 21.1742 17.3672C21.6029 17.048 21.8805 16.537 21.88 15.9614L21.8797 15.5881C21.8795 15.3836 21.8442 15.1872 21.7796 15.0048Z" fill="#808F9F" stroke="#808F9F" stroke-width="0.5"/>
<path d="M25.907 18.8296C25.9078 19.763 25.1384 20.4969 24.1584 20.4977C23.1784 20.4985 22.4078 19.7658 22.407 18.8325C22.4062 17.8991 24.1545 15.8311 24.1545 15.8311C24.1545 15.8311 25.9063 17.963 25.907 18.8296Z" fill="#808F9F"/>
<path d="M25.3195 13.7881C25.3199 14.2714 24.7979 14.6635 24.1536 14.6641C23.5093 14.6646 22.9866 14.2732 22.9862 13.79C22.9858 13.3068 23.5078 12.9146 24.1521 12.9141C24.7965 12.9135 25.3191 13.3048 25.3195 13.7881Z" fill="#808F9F"/>
</g>
<defs>
<clipPath id="clip0_7_961">
<rect width="32" height="32" fill="white"/>
</clipPath>
</defs>
</svg>
