<svg width="20" height="20" viewBox="0 0 20 20" fill="none" xmlns="http://www.w3.org/2000/svg">
<g clip-path="url(#clip0_1084_5341)">
<path d="M8.33331 4.16667C8.33331 3.72464 8.50891 3.30072 8.82147 2.98816C9.13403 2.67559 9.55795 2.5 9.99998 2.5C10.442 2.5 10.8659 2.67559 11.1785 2.98816C11.4911 3.30072 11.6666 3.72464 11.6666 4.16667C12.6237 4.61919 13.4395 5.32361 14.0267 6.20442C14.6139 7.08523 14.9503 8.10923 15 9.16667V11.6667C15.0627 12.1848 15.2462 12.6809 15.5357 13.1151C15.8251 13.5493 16.2125 13.9095 16.6666 14.1667H3.33331C3.78743 13.9095 4.17482 13.5493 4.4643 13.1151C4.75378 12.6809 4.93727 12.1848 4.99998 11.6667V9.16667C5.04961 8.10923 5.38606 7.08523 5.97327 6.20442C6.56048 5.32361 7.37631 4.61919 8.33331 4.16667Z" stroke="#808F9F" stroke-width="1.25" stroke-linecap="round" stroke-linejoin="round"/>
<path d="M7.5 14.1666V15C7.5 15.663 7.76339 16.2989 8.23223 16.7677C8.70107 17.2366 9.33696 17.5 10 17.5C10.663 17.5 11.2989 17.2366 11.7678 16.7677C12.2366 16.2989 12.5 15.663 12.5 15V14.1666" stroke="#808F9F" stroke-width="1.25" stroke-linecap="round" stroke-linejoin="round"/>
</g>
<defs>
<clipPath id="clip0_1084_5341">
<rect width="20" height="20" fill="white"/>
</clipPath>
</defs>
</svg>
