<svg width="20" height="20" viewBox="0 0 20 20" fill="none" xmlns="http://www.w3.org/2000/svg">
<g clip-path="url(#clip0_1084_10794)">
<path d="M10.8334 16.6666L16.6667 10.8333" stroke="#181818" stroke-width="1.25" stroke-linecap="round" stroke-linejoin="round"/>
<path d="M10.8334 16.6666V11.6666C10.8334 11.4456 10.9212 11.2336 11.0775 11.0773C11.2337 10.921 11.4457 10.8333 11.6667 10.8333H16.6667V4.99992C16.6667 4.55789 16.4911 4.13397 16.1786 3.82141C15.866 3.50885 15.4421 3.33325 15 3.33325H5.00004C4.55801 3.33325 4.13409 3.50885 3.82153 3.82141C3.50897 4.13397 3.33337 4.55789 3.33337 4.99992V14.9999C3.33337 15.4419 3.50897 15.8659 3.82153 16.1784C4.13409 16.491 4.55801 16.6666 5.00004 16.6666H10.8334Z" stroke="#181818" stroke-width="1.25" stroke-linecap="round" stroke-linejoin="round"/>
</g>
<defs>
<clipPath id="clip0_1084_10794">
<rect width="20" height="20" fill="white"/>
</clipPath>
</defs>
</svg>
