<svg width="20" height="20" viewBox="0 0 20 20" fill="none" xmlns="http://www.w3.org/2000/svg">
<g clip-path="url(#clip0_424_563)">
<path d="M3.33331 4.16679C3.33333 4.05597 3.35545 3.94627 3.39837 3.8441C3.4413 3.74194 3.50417 3.64936 3.58331 3.57179C4.49152 2.68149 5.70485 2.17073 6.97636 2.14348C8.24787 2.11624 9.48197 2.57454 10.4275 3.42512L10.72 3.69845C11.3278 4.23104 12.1085 4.52464 12.9166 4.52464C13.7248 4.52464 14.5055 4.23104 15.1133 3.69845L15.3208 3.50929C15.8291 3.10679 16.5933 3.42845 16.6625 4.07262L16.6666 4.16679V11.6668C16.6666 11.7776 16.6445 11.8873 16.6016 11.9895C16.5587 12.0916 16.4958 12.1842 16.4166 12.2618C15.5084 13.1521 14.2951 13.6628 13.0236 13.6901C11.7521 13.7173 10.518 13.259 9.57248 12.4085L9.27998 12.1351C8.69126 11.6193 7.93979 11.3271 7.15725 11.3097C6.3747 11.2924 5.61101 11.5509 4.99998 12.0401V17.5001C4.99974 17.7125 4.91841 17.9168 4.77261 18.0713C4.6268 18.2257 4.42752 18.3186 4.21548 18.3311C4.00345 18.3435 3.79466 18.2746 3.63179 18.1382C3.46891 18.0019 3.36423 17.8085 3.33915 17.5976L3.33331 17.5001V4.16679Z" fill="white"/>
</g>
<defs>
<clipPath id="clip0_424_563">
<rect width="20" height="20" fill="white"/>
</clipPath>
</defs>
</svg>
