<svg width="26" height="26" viewBox="0 0 26 26" fill="none" xmlns="http://www.w3.org/2000/svg">
<path d="M17.1393 20.5744C17.1206 20.0746 17.0025 19.5834 16.7919 19.1298C16.5812 18.6761 16.2822 18.2689 15.9124 17.9321C14.5106 16.6207 13.6849 14.8077 13.6157 12.8894C13.5466 10.971 14.2396 9.10329 15.5433 7.69431C16.0464 7.14929 16.3773 6.46779 16.4943 5.73533C16.6114 5.00287 16.5094 4.25217 16.2013 3.57751C15.893 2.90282 15.3923 2.33427 14.762 1.94318C14.1318 1.55215 13.4 1.35603 12.6587 1.37949C11.9173 1.40299 11.1994 1.64498 10.5951 2.07512C9.99083 2.50531 9.52713 3.10438 9.26225 3.79722C8.99733 4.49003 8.94307 5.24572 9.10624 5.96928C9.26938 6.69283 9.64271 7.35209 10.1793 7.86415C10.8817 8.51252 11.4492 9.29313 11.8492 10.1612C12.2493 11.0293 12.4741 11.9679 12.5108 12.923C12.5474 13.8782 12.3952 14.8312 12.0629 15.7274C11.7305 16.6236 11.2245 17.4454 10.574 18.1457C10.1643 18.6028 9.87252 19.153 9.72425 19.7486C9.57598 20.3442 9.57564 20.9671 9.72321 21.5629C9.8708 22.1587 10.1618 22.7093 10.571 23.1668C10.9801 23.6244 11.495 23.9748 12.0706 24.1878C12.6463 24.4008 13.2653 24.4697 13.8737 24.3886C14.4822 24.3075 15.0615 24.0789 15.5613 23.7226C16.0611 23.3663 16.4661 22.8932 16.7412 22.3445C17.0162 21.7957 17.1529 21.1881 17.1393 20.5744Z" fill="white"/>
<path d="M1.4205 13.108C1.43856 13.8579 1.68019 14.5852 2.11448 15.1968C2.54879 15.8083 3.15588 16.2761 3.8579 16.5402C4.55996 16.8043 5.32489 16.8527 6.05453 16.679C6.78424 16.5054 7.44538 16.1176 7.95315 15.5656C8.60151 14.8632 9.3821 14.2956 10.2502 13.8955C11.1184 13.4953 12.0569 13.2704 13.0121 13.2337C13.9673 13.197 14.9204 13.3492 15.8166 13.6816C16.7129 14.0139 17.5347 14.5199 18.2351 15.1705C18.7816 15.6732 19.4645 16.0029 20.198 16.1183C20.9314 16.2337 21.6827 16.1296 22.3571 15.8191C23.0316 15.5085 23.5991 15.0054 23.9883 14.3731C24.3775 13.7408 24.5709 13.0075 24.5443 12.2655C24.5177 11.5234 24.2722 10.8059 23.8387 10.2031C23.4052 9.60023 22.8032 9.13907 22.1082 8.87764C21.4132 8.61618 20.6565 8.56616 19.9331 8.73379C19.2098 8.90146 18.5523 9.2793 18.0432 9.8198C16.7336 11.2232 14.9213 12.0506 13.003 12.121C11.0848 12.1914 9.21682 11.499 7.80791 10.1953C7.26423 9.67342 6.57644 9.32673 5.83351 9.20017C5.09058 9.07361 4.32676 9.17297 3.64099 9.48539C2.9552 9.79788 2.37899 10.309 1.987 10.9526C1.59498 11.5963 1.40522 12.3428 1.44226 13.0955L1.4205 13.108Z" fill="white"/>
</svg>
