<svg width="20" height="20" viewBox="0 0 20 20" fill="none" xmlns="http://www.w3.org/2000/svg">
<g clip-path="url(#clip0_224_3571)">
<path d="M15.625 2.25H4.375C3.5462 2.25 2.75134 2.57924 2.16529 3.16529C1.57924 3.75134 1.25 4.5462 1.25 5.375V16.625C1.25 17.4538 1.57924 18.2487 2.16529 18.8347C2.75134 19.4208 3.5462 19.75 4.375 19.75H15.625C16.4538 19.75 17.2487 19.4208 17.8347 18.8347C18.4208 18.2487 18.75 17.4538 18.75 16.625V5.375C18.75 4.5462 18.4208 3.75134 17.8347 3.16529C17.2487 2.57924 16.4538 2.25 15.625 2.25ZM17.5 16.625C17.5 17.1223 17.3025 17.5992 16.9508 17.9508C16.5992 18.3025 16.1223 18.5 15.625 18.5H4.375C3.87772 18.5 3.40081 18.3025 3.04917 17.9508C2.69754 17.5992 2.5 17.1223 2.5 16.625V5.375C2.5 4.87772 2.69754 4.40081 3.04917 4.04917C3.40081 3.69754 3.87772 3.5 4.375 3.5H15.625C16.1223 3.5 16.5992 3.69754 16.9508 4.04917C17.3025 4.40081 17.5 4.87772 17.5 5.375V16.625ZM16.1125 7.7625C15.2439 6.74684 14.1648 5.93219 12.95 5.375C12.0168 4.97525 11.0121 4.76913 9.99687 4.76913C8.98164 4.76913 7.97697 4.97525 7.04375 5.375C5.84131 5.94327 4.77545 6.76398 3.91875 7.78125C3.86743 7.84586 3.8294 7.91999 3.80688 7.99938C3.78435 8.07876 3.77776 8.16181 3.7875 8.24375C3.79666 8.32531 3.8218 8.40428 3.86148 8.47612C3.90115 8.54797 3.9546 8.6113 4.01875 8.6625L6.83125 10.8813C6.8989 10.9378 6.9784 10.9784 7.06387 11C7.14935 11.0217 7.2386 11.0238 7.325 11.0063C7.41215 10.9911 7.4951 10.9577 7.56836 10.9081C7.64163 10.8586 7.70354 10.794 7.75 10.7188C7.97369 10.3132 8.2984 9.97235 8.69262 9.72924C9.08684 9.48614 9.53719 9.34904 10 9.33125C10.4663 9.34181 10.9219 9.47356 11.3219 9.71355C11.7219 9.95354 12.0525 10.2935 12.2812 10.7C12.3277 10.7753 12.3896 10.8398 12.4629 10.8894C12.5361 10.9389 12.6191 10.9724 12.7063 10.9875C12.7414 10.994 12.7774 10.994 12.8125 10.9875C12.9535 10.9867 13.09 10.9382 13.2 10.85L16.0125 8.63125C16.0767 8.58005 16.1301 8.51672 16.1698 8.44487C16.2095 8.37303 16.2346 8.29406 16.2437 8.2125C16.26 8.05115 16.213 7.88979 16.1125 7.7625ZM12.9313 9.48125C12.3456 8.77583 11.5281 8.30174 10.625 8.14375V7.25C10.625 7.08424 10.5592 6.92527 10.4419 6.80806C10.3247 6.69085 10.1658 6.625 10 6.625C9.83424 6.625 9.67527 6.69085 9.55806 6.80806C9.44085 6.92527 9.375 7.08424 9.375 7.25V8.14375C8.47187 8.30174 7.65439 8.77583 7.06875 9.48125L5.2875 8.075C5.94331 7.42566 6.70669 6.8949 7.54375 6.50625C8.32013 6.17444 9.15569 6.00337 10 6.00337C10.8443 6.00337 11.6799 6.17444 12.4563 6.50625C13.2933 6.8949 14.0567 7.42566 14.7125 8.075L12.9313 9.48125Z" fill="#0068FF"/>
</g>
<defs>
<clipPath id="clip0_224_3571">
<rect width="20" height="20" fill="white"/>
</clipPath>
</defs>
</svg>
