<svg width="20" height="20" viewBox="0 0 20 20" fill="none" xmlns="http://www.w3.org/2000/svg">
<g clip-path="url(#clip0_224_3519)">
<g clip-path="url(#clip1_224_3519)">
<path d="M6.2141 6.35211C6.19262 6.33005 6.16702 6.31245 6.13874 6.30029C6.11046 6.28814 6.08006 6.28167 6.04929 6.28127C6.01851 6.28087 5.98795 6.28653 5.95937 6.29794C5.93078 6.30935 5.90472 6.32628 5.88268 6.34776C5.56313 6.66228 5.37108 7.0838 5.34343 7.53131C5.31578 7.97883 5.45447 8.42078 5.73287 8.77225C5.77236 8.81996 5.82893 8.85035 5.89051 8.85691C5.9521 8.86348 6.01381 8.8457 6.06246 8.80739C6.08641 8.78805 6.10632 8.76419 6.12104 8.73716C6.13577 8.71013 6.14503 8.68047 6.14829 8.64987C6.15155 8.61926 6.14875 8.58831 6.14006 8.55879C6.13136 8.52927 6.11693 8.50174 6.09759 8.4778C5.8953 8.21607 5.79512 7.88969 5.81575 7.55955C5.83639 7.2294 5.97643 6.91803 6.20974 6.68354C6.23179 6.66206 6.2494 6.63645 6.26155 6.60818C6.2737 6.5799 6.28016 6.5495 6.28057 6.51872C6.28097 6.48795 6.27531 6.45739 6.2639 6.4288C6.2525 6.40022 6.23557 6.37415 6.2141 6.35211Z" fill="#0068FF" stroke="#0068FF" stroke-width="0.5"/>
<path d="M17.4141 13.5786V13.1557C17.4084 12.9888 17.348 12.8284 17.2421 12.6993C17.1362 12.5702 16.9907 12.4796 16.8281 12.4414V11.1934C16.8163 11.2054 16.8053 11.218 16.7934 11.23L16.3594 11.6655V12.4414C16.1968 12.4796 16.0513 12.5702 15.9454 12.6993C15.8395 12.8284 15.7791 12.9888 15.7734 13.1557V13.5786C15.5923 13.7084 15.4447 13.8795 15.3428 14.0778C15.2409 14.276 15.1877 14.4956 15.1875 14.7184V16.1247C15.1875 16.4976 15.3357 16.8553 15.5994 17.1191C15.8631 17.3828 16.2208 17.5309 16.5938 17.5309C16.9667 17.5309 17.3244 17.3828 17.5881 17.1191C17.8518 16.8553 18 16.4976 18 16.1247V14.7184C17.9998 14.4956 17.9466 14.276 17.8447 14.0778C17.7428 13.8795 17.5952 13.7084 17.4141 13.5786ZM16.2422 13.1557C16.2422 13.0056 16.4032 12.8787 16.5938 12.8787C16.7843 12.8787 16.9453 13.0056 16.9453 13.1557V13.3585C16.715 13.2968 16.4725 13.2968 16.2422 13.3585V13.1557ZM17.5312 16.1247C17.5312 16.3733 17.4325 16.6118 17.2567 16.7876C17.0808 16.9634 16.8424 17.0622 16.5938 17.0622C16.3451 17.0622 16.1067 16.9634 15.9308 16.7876C15.755 16.6118 15.6562 16.3733 15.6562 16.1247V14.7184C15.6562 14.4698 15.755 14.2313 15.9308 14.0555C16.1067 13.8797 16.3451 13.7809 16.5938 13.7809C16.8424 13.7809 17.0808 13.8797 17.2567 14.0555C17.4325 14.2313 17.5312 14.4698 17.5312 14.7184V16.1247Z" fill="#0068FF" stroke="#0068FF" stroke-width="0.5"/>
<path d="M10.6651 7.96993L11.251 7.38399C11.2948 7.34 11.3193 7.28046 11.3192 7.21841C11.3191 7.15637 11.2944 7.09689 11.2506 7.05301C11.2067 7.00914 11.1472 6.98446 11.0852 6.98438C11.0231 6.98429 10.9636 7.00882 10.9196 7.05257L10.3336 7.63851C10.3119 7.66027 10.2946 7.6861 10.2828 7.71454C10.271 7.74297 10.265 7.77345 10.265 7.80423C10.2649 7.83502 10.271 7.8655 10.2828 7.89394C10.2946 7.92238 10.3118 7.94822 10.3336 7.96998C10.3554 7.99175 10.3812 8.00901 10.4096 8.02079C10.4381 8.03257 10.4686 8.03863 10.4993 8.03862C10.5301 8.03862 10.5606 8.03255 10.589 8.02076C10.6175 8.00898 10.6433 7.9917 10.6651 7.96993Z" fill="#0068FF"/>
<path d="M13.1674 7.33215C13.2291 7.33317 13.2887 7.30967 13.3331 7.2668L13.4502 7.14962C13.494 7.10563 13.5185 7.04608 13.5184 6.98404C13.5184 6.92199 13.4937 6.86251 13.4498 6.81864C13.4059 6.77477 13.3465 6.75008 13.2844 6.75C13.2224 6.74992 13.1628 6.77444 13.1188 6.8182L13.0016 6.93538C12.97 6.96834 12.9487 7.0098 12.9404 7.05469C12.932 7.09957 12.9369 7.14593 12.9545 7.18806C12.9721 7.23019 13.0016 7.26627 13.0394 7.29186C13.0773 7.31746 13.1217 7.33146 13.1674 7.33215Z" fill="#0068FF" stroke="#0068FF" stroke-width="0.5"/>
<path d="M13.0017 8.90756L13.1189 9.02474C13.1632 9.06788 13.2227 9.09201 13.2846 9.09201C13.3465 9.09201 13.4059 9.06788 13.4503 9.02474C13.472 9.00299 13.4893 8.97715 13.5011 8.94872C13.5129 8.92029 13.5189 8.88981 13.5189 8.85903C13.5189 8.82826 13.5129 8.79778 13.5011 8.76935C13.4893 8.74091 13.472 8.71508 13.4503 8.69332L13.3331 8.57614C13.2891 8.53233 13.2296 8.50775 13.1675 8.50781C13.1054 8.50787 13.0459 8.53256 13.002 8.57645C12.9581 8.62035 12.9334 8.67986 12.9333 8.74194C12.9333 8.80402 12.9579 8.86358 13.0017 8.90756Z" fill="#0068FF" stroke="#0068FF" stroke-width="0.5"/>
<path d="M13.8762 11.1381C13.921 11.1809 13.9807 11.2045 14.0426 11.204C14.1045 11.2035 14.1637 11.1788 14.2077 11.1352L15.0772 10.2502C15.0988 10.2283 15.1159 10.2023 15.1274 10.1738C15.1389 10.1452 15.1447 10.1147 15.1444 10.0839C15.1442 10.0531 15.1378 10.0227 15.1258 9.99436C15.1138 9.96602 15.0963 9.94034 15.0743 9.91876C15.0524 9.89719 15.0264 9.88015 14.9978 9.86862C14.9693 9.8571 14.9388 9.8513 14.908 9.85157C14.8772 9.85184 14.8468 9.85817 14.8184 9.8702C14.7901 9.88223 14.7644 9.89973 14.7428 9.92168L13.8733 10.8066C13.8298 10.851 13.8056 10.9108 13.8062 10.9729C13.8067 11.0351 13.8319 11.0945 13.8762 11.1381Z" fill="#0068FF" stroke="#0068FF" stroke-width="0.5"/>
<path d="M11.9874 12.689C11.9439 12.7334 11.9197 12.7932 11.9202 12.8554C11.9208 12.9175 11.946 12.9769 11.9903 13.0205C12.0347 13.0641 12.0945 13.0882 12.1567 13.0877C12.2189 13.0871 12.2783 13.0619 12.3218 13.0176L12.5269 12.8088C12.5705 12.7645 12.5946 12.7047 12.5941 12.6425C12.5935 12.5803 12.5683 12.5209 12.524 12.4774C12.4796 12.4338 12.4198 12.4096 12.3576 12.4102C12.2955 12.4107 12.2361 12.4359 12.1925 12.4803L11.9874 12.689Z" fill="#0068FF" stroke="#0068FF" stroke-width="0.5"/>
<path d="M10.733 10.7254C10.9281 10.6971 11.1064 10.5996 11.2355 10.4507C11.3647 10.3018 11.4359 10.1115 11.4362 9.91439V9.60645C11.8282 9.39737 12.1391 9.06325 12.3194 8.6572C12.4998 8.25115 12.5392 7.79648 12.4314 7.36546C12.3237 6.93443 12.0749 6.5518 11.7247 6.27838C11.3745 6.00496 10.943 5.85645 10.4987 5.85645C10.0544 5.85645 9.62289 6.00496 9.2727 6.27838C8.92251 6.5518 8.67377 6.93443 8.56601 7.36546C8.45826 7.79648 8.49768 8.25115 8.678 8.6572C8.85832 9.06325 9.1692 9.39737 9.56122 9.60645V9.91439C9.56156 10.1114 9.63276 10.3017 9.7618 10.4506C9.89085 10.5995 10.0691 10.697 10.2641 10.7253C10.2846 11.7159 9.91261 12.6744 9.22923 13.3917C8.73237 13.8744 8.11477 14.2144 7.44124 14.3761C6.7677 14.5378 6.06306 14.5152 5.40124 14.3108C4.55357 14.0301 3.88329 13.4513 3.60818 12.7626C3.3483 12.112 3.45476 11.3113 3.88768 10.5663C3.78832 10.4232 3.6967 10.2749 3.6132 10.1221C3.00007 11.0464 2.8339 12.0878 3.17284 12.9364C3.49866 13.752 4.27657 14.4321 5.25384 14.7558C6.02743 14.9996 6.85461 15.0174 7.63798 14.8071C8.36452 14.6234 9.02872 14.2487 9.5618 13.722C10.332 12.9166 10.753 11.8396 10.733 10.7254ZM8.97528 7.84959C8.97528 7.54828 9.06463 7.25374 9.23203 7.00321C9.39943 6.75268 9.63735 6.55742 9.91573 6.44212C10.1941 6.32681 10.5004 6.29664 10.7959 6.35542C11.0914 6.41421 11.3629 6.5593 11.576 6.77236C11.789 6.98541 11.9341 7.25686 11.9929 7.55238C12.0517 7.8479 12.0215 8.15421 11.9062 8.43258C11.7909 8.71096 11.5956 8.94888 11.3451 9.11628C11.0946 9.28368 10.8 9.37303 10.4987 9.37303C10.0948 9.37258 9.70758 9.21193 9.42198 8.92633C9.13638 8.64073 8.97573 8.25349 8.97528 7.84959ZM10.03 9.91439V9.78377C10.3377 9.86111 10.6598 9.86111 10.9675 9.78377V9.91439C10.9674 10.0076 10.9303 10.097 10.8644 10.1629C10.7985 10.2288 10.7091 10.2658 10.6159 10.266H10.3815C10.2883 10.2658 10.199 10.2288 10.1331 10.1629C10.0671 10.097 10.0301 10.0076 10.03 9.91439Z" fill="#0068FF" stroke="#0068FF" stroke-width="0.5"/>
<path d="M16.6383 4.84519C15.8721 4.01686 14.8104 3.52388 13.6832 3.4731C12.5559 3.42232 11.4541 3.81783 10.6166 4.57391C9.779 3.81783 8.67719 3.42232 7.54998 3.4731C6.42277 3.52388 5.361 4.01686 4.5948 4.84519C3.03783 6.52284 3.11754 9.23875 4.77241 10.8994L7.67677 13.814C7.83542 13.7585 7.98979 13.6915 8.13866 13.6135L5.10441 10.5686C3.62503 9.08397 3.55053 6.65948 4.93835 5.16402C5.28798 4.78591 5.71047 4.48239 6.1804 4.27173C6.65033 4.06107 7.15801 3.9476 7.67291 3.93817C8.18782 3.92873 8.69932 4.0235 9.17665 4.2168C9.65399 4.4101 10.0873 4.69792 10.4506 5.06297C10.4953 5.1056 10.5548 5.12938 10.6166 5.12938C10.6784 5.12938 10.7378 5.1056 10.7826 5.06297C11.1458 4.69792 11.5791 4.4101 12.0565 4.2168C12.5338 4.0235 13.0453 3.92873 13.5602 3.93817C14.0751 3.9476 14.5828 4.06107 15.0527 4.27173C15.5227 4.48239 15.9451 4.78591 16.2948 5.16402C17.6826 6.65948 17.6081 9.08397 16.1287 10.5686L10.9731 15.7424C10.8777 15.8355 10.7498 15.8877 10.6166 15.8877C10.4833 15.8877 10.3554 15.8355 10.2601 15.7424L9.164 14.6425C9.02803 14.7303 8.8876 14.811 8.74327 14.8843L9.92809 16.0733C10.1131 16.2512 10.3598 16.3507 10.6166 16.3507C10.8733 16.3507 11.12 16.2512 11.305 16.0733L16.4607 10.8994C18.1156 9.23875 18.1953 6.52284 16.6383 4.84519Z" fill="#0068FF" stroke="#0068FF" stroke-width="0.5"/>
</g>
</g>
<defs>
<clipPath id="clip0_224_3519">
<rect width="20" height="20" fill="white"/>
</clipPath>
<clipPath id="clip1_224_3519">
<rect width="17" height="15" fill="white" transform="translate(2 3)"/>
</clipPath>
</defs>
</svg>
