<svg width="20" height="20" viewBox="0 0 20 20" fill="none" xmlns="http://www.w3.org/2000/svg">
<g clip-path="url(#clip0_13_19)">
<path d="M20 8.35474C20.0003 8.02726 19.8725 7.71933 19.6408 7.48797C19.4092 7.25649 19.1004 7.12903 18.7719 7.12903H18.7373C18.4166 7.12903 18.1152 7.25381 17.8889 7.48061L15.0645 10.3053V0H5.9026L3 2.9026V17H15.0645V13.8232L18.629 10.2587L18.6926 10.3223C18.8265 10.4563 18.9032 10.6415 18.9032 10.8306C18.9032 11.0198 18.8265 11.205 18.6926 11.339L16.7097 13.322C16.5328 13.4988 16.4355 13.7338 16.4355 13.9839C16.4355 14.234 16.5328 14.4692 16.7097 14.6458L17.0642 15.0003L17.4519 14.6126L17.0974 14.2581C17.0242 14.1846 16.9839 14.0875 16.9839 13.9839C16.9839 13.8802 17.0242 13.7832 17.0974 13.7097L19.0804 11.7267C19.3164 11.4907 19.4516 11.1643 19.4516 10.8306C19.4516 10.497 19.3164 10.1706 19.0804 9.93456L19.0168 9.87097L19.6358 9.25189C19.8705 9.01719 20 8.70511 20 8.35474ZM5.74194 0.936114V2.74194H3.93611L5.74194 0.936114ZM14.5161 16.4516H3.54839V3.29032H6.29032V0.548387H14.5161V10.8539L11.804 13.5663L11.2933 15.3548H10.8946C10.8653 15.3548 10.8389 15.3384 10.8258 15.3124L10.3823 14.4256L10.6193 14.0461C10.8367 13.6979 10.9516 13.2973 10.9516 12.8871C10.9516 12.4336 10.5825 12.0645 10.129 12.0645C9.67557 12.0645 9.30645 12.4336 9.30645 12.8871V12.9842C9.30645 13.3217 9.38625 13.66 9.53727 13.9619L9.75416 14.3954L9.17699 15.319C9.16333 15.3412 9.13816 15.3548 9.11178 15.3548H8.75806C8.72272 15.3548 8.69193 15.3307 8.68349 15.2965L8.54198 14.7313C8.47236 14.4527 8.2228 14.2581 7.93548 14.2581C7.64817 14.2581 7.39861 14.4527 7.32899 14.7316L7.18748 15.2967C7.17904 15.3307 7.14825 15.3548 7.1129 15.3548H6.29032V15.9032H7.1129C7.40022 15.9032 7.64978 15.7086 7.7194 15.4297L7.86091 14.8646C7.87791 14.796 7.99305 14.796 8.01032 14.8646L8.15184 15.4297C8.22119 15.7086 8.47075 15.9032 8.75806 15.9032H9.11178C9.32894 15.9032 9.52749 15.7936 9.6421 15.6096L10.0416 14.9705L10.3352 15.5578C10.4419 15.7708 10.6563 15.9032 10.8946 15.9032H11.5384L13.563 15.325L14.5161 14.3716V16.4516ZM12.1841 14.2332L12.8959 14.9449L11.8992 15.2298L12.1841 14.2332ZM10.1545 13.7552L10.0948 13.8507L10.0278 13.7168C9.91455 13.4904 9.85484 13.2369 9.85484 12.9842V12.8871C9.85484 12.7358 9.97774 12.6129 10.129 12.6129C10.2803 12.6129 10.4032 12.7358 10.4032 12.8871C10.4032 13.1945 10.3174 13.4947 10.1545 13.7552ZM13.4194 14.6929L12.4361 13.7097L17.2578 8.88746L18.2413 9.87097L13.4194 14.6929ZM19.2481 8.86416L18.629 9.48324L17.6455 8.49973L18.2769 7.8682C18.3996 7.74516 18.5632 7.67742 18.7373 7.67742H18.7719C18.9542 7.67742 19.1253 7.74784 19.2536 7.87624C19.3812 8.00369 19.4516 8.17373 19.4516 8.37335C19.4516 8.55864 19.3792 8.73309 19.2481 8.86416Z" fill="#0068FF" stroke="#0068FF" stroke-width="0.25"/>
<path d="M5.19348 15.3545H5.74187V15.9029H5.19348V15.3545Z" fill="#0068FF" stroke="#0068FF" stroke-width="0.25"/>
<path d="M13.4193 1.0957H13.9677V1.64409H13.4193V1.0957Z" fill="#0068FF" stroke="#0068FF" stroke-width="0.25"/>
<path d="M9.58069 1.0957H12.871V1.64409H9.58069V1.0957Z" fill="#0068FF" stroke="#0068FF" stroke-width="0.25"/>
<path d="M13.4193 3.29102H13.9677V3.8394H13.4193V3.29102Z" fill="#0068FF" stroke="#0068FF" stroke-width="0.25"/>
<path d="M9.58069 3.29102H12.871V3.8394H9.58069V3.29102Z" fill="#0068FF" stroke="#0068FF" stroke-width="0.25"/>
<path d="M4.09686 5.67969H13.9678V6.22807H4.09686V5.67969Z" fill="#0068FF" stroke="#0068FF" stroke-width="0.25"/>
<path d="M7.93549 7.9502H8.48387V8.49858H7.93549V7.9502Z" fill="#0068FF" stroke="#0068FF" stroke-width="0.25"/>
<path d="M9.03223 7.9502H13.9677V8.49858H9.03223V7.9502Z" fill="#0068FF" stroke="#0068FF" stroke-width="0.25"/>
<path d="M7.93549 10.1455H13.9677V10.6939H7.93549V10.1455Z" fill="#0068FF" stroke="#0068FF" stroke-width="0.25"/>
<path d="M5.74202 10.9681C6.64935 10.9681 7.38719 10.2302 7.38719 9.3229C7.38719 8.41557 6.64935 7.67773 5.74202 7.67773C4.8347 7.67773 4.09686 8.41557 4.09686 9.3229C4.09686 10.2302 4.8347 10.9681 5.74202 10.9681ZM5.74202 8.22612C6.34691 8.22612 6.8388 8.71801 6.8388 9.3229C6.8388 9.92778 6.34691 10.4197 5.74202 10.4197C5.13714 10.4197 4.64525 9.92778 4.64525 9.3229C4.64525 8.71801 5.13714 8.22612 5.74202 8.22612Z" fill="#0068FF" stroke="#0068FF" stroke-width="0.25"/>
<path d="M4.09686 12.6133H7.93557V13.1617H4.09686V12.6133Z" fill="#0068FF" stroke="#0068FF" stroke-width="0.25"/>
</g>
<defs>
<clipPath id="clip0_13_19">
<rect width="20" height="20" fill="white"/>
</clipPath>
</defs>
</svg>
