<svg width="15" height="17" viewBox="0 0 15 17" fill="none" xmlns="http://www.w3.org/2000/svg">
<path d="M10.5144 7.375C10.5144 7.02981 10.2346 6.75 9.88941 6.75H3.4519C3.10672 6.75 2.8269 7.02981 2.8269 7.375C2.8269 7.72019 3.10672 8 3.4519 8H9.88941C10.2346 8 10.5144 7.72019 10.5144 7.375Z" fill="white"/>
<path d="M3.4519 9.25C3.10672 9.25 2.8269 9.52981 2.8269 9.875C2.8269 10.2202 3.10672 10.5 3.4519 10.5H7.36162C7.70681 10.5 7.98662 10.2202 7.98662 9.875C7.98662 9.52981 7.70681 9.25 7.36162 9.25H3.4519Z" fill="white"/>
<path d="M4.9206 15.25H2.83032C2.14107 15.25 1.58032 14.6892 1.58032 14V3C1.58032 2.31075 2.14107 1.75 2.83032 1.75H10.5144C11.2036 1.75 11.7644 2.31075 11.7644 3V6.84375C11.7644 7.18894 12.0442 7.46875 12.3894 7.46875C12.7345 7.46875 13.0144 7.18894 13.0144 6.84375V3C13.0144 1.6215 11.8929 0.5 10.5144 0.5H2.83032C1.45182 0.5 0.330322 1.6215 0.330322 3V14C0.330322 15.3785 1.45182 16.5 2.83032 16.5H4.9206C5.26579 16.5 5.5456 16.2202 5.5456 15.875C5.5456 15.5298 5.26579 15.25 4.9206 15.25Z" fill="white"/>
<path d="M14.1214 9.54935C13.3903 8.81829 12.2008 8.81825 11.4702 9.54885L8.03887 12.9726C7.966 13.0453 7.91225 13.1349 7.88231 13.2334L7.13503 15.6935C7.06878 15.9117 7.1265 16.1485 7.28569 16.3117C7.40494 16.4339 7.56694 16.5002 7.73309 16.5002C7.78869 16.5002 7.84481 16.4928 7.89991 16.4775L10.4226 15.7787C10.5264 15.75 10.621 15.6949 10.6973 15.6188L14.1214 12.201C14.8525 11.47 14.8525 10.2805 14.1214 9.54935ZM9.9305 14.618L8.66138 14.9695L9.03278 13.7468L11.3481 11.4366L12.2321 12.3207L9.9305 14.618ZM13.238 11.3168L13.1169 11.4376L12.233 10.5537L12.3537 10.4333C12.5973 10.1896 12.9938 10.1896 13.2375 10.4333C13.4812 10.677 13.4812 11.0735 13.238 11.3168Z" fill="white"/>
<path d="M9.88941 4.25H3.4519C3.10672 4.25 2.8269 4.52981 2.8269 4.875C2.8269 5.22019 3.10672 5.5 3.4519 5.5H9.88941C10.2346 5.5 10.5144 5.22019 10.5144 4.875C10.5144 4.52981 10.2346 4.25 9.88941 4.25Z" fill="white"/>
</svg>
