<svg width="20" height="20" viewBox="0 0 20 20" fill="none" xmlns="http://www.w3.org/2000/svg">
<g clip-path="url(#clip0_415_213)">
<path d="M9.99998 17.5001H4.99998C4.55795 17.5001 4.13403 17.3245 3.82147 17.0119C3.50891 16.6994 3.33331 16.2754 3.33331 15.8334V5.83341C3.33331 5.39139 3.50891 4.96746 3.82147 4.6549C4.13403 4.34234 4.55795 4.16675 4.99998 4.16675H15C15.442 4.16675 15.8659 4.34234 16.1785 4.6549C16.4911 4.96746 16.6666 5.39139 16.6666 5.83341V9.58341" stroke="white" stroke-width="1.25" stroke-linecap="round" stroke-linejoin="round"/>
<path d="M13.3333 2.5V5.83333" stroke="white" stroke-width="1.25" stroke-linecap="round" stroke-linejoin="round"/>
<path d="M6.66669 2.5V5.83333" stroke="white" stroke-width="1.25" stroke-linecap="round" stroke-linejoin="round"/>
<path d="M3.33331 9.16675H16.6666" stroke="white" stroke-width="1.25" stroke-linecap="round" stroke-linejoin="round"/>
<path d="M14.1667 14.1667C14.1667 14.6087 14.3423 15.0326 14.6548 15.3452C14.9674 15.6577 15.3913 15.8333 15.8334 15.8333C16.2754 15.8333 16.6993 15.6577 17.0119 15.3452C17.3244 15.0326 17.5 14.6087 17.5 14.1667C17.5 13.7246 17.3244 13.3007 17.0119 12.9882C16.6993 12.6756 16.2754 12.5 15.8334 12.5C15.3913 12.5 14.9674 12.6756 14.6548 12.9882C14.3423 13.3007 14.1667 13.7246 14.1667 14.1667Z" stroke="white" stroke-width="1.25" stroke-linecap="round" stroke-linejoin="round"/>
<path d="M18.3333 18.3334C18.3333 17.8914 18.1577 17.4675 17.8452 17.1549C17.5326 16.8423 17.1087 16.6667 16.6666 16.6667H15C14.558 16.6667 14.134 16.8423 13.8215 17.1549C13.5089 17.4675 13.3333 17.8914 13.3333 18.3334" stroke="white" stroke-width="1.25" stroke-linecap="round" stroke-linejoin="round"/>
</g>
<defs>
<clipPath id="clip0_415_213">
<rect width="20" height="20" fill="white"/>
</clipPath>
</defs>
</svg>
