<svg width="32" height="32" viewBox="0 0 32 32" fill="none" xmlns="http://www.w3.org/2000/svg">
<g clip-path="url(#clip0_1084_5315)">
<path d="M13.2069 8.78813C13.3194 8.6732 13.4075 8.53657 13.4656 8.38654C13.5237 8.23652 13.5507 8.07624 13.5449 7.91546V4.84267C13.5332 4.52386 13.6008 4.20714 13.7415 3.92084C13.8735 3.63184 14.0544 3.36779 14.2762 3.14035C14.5031 2.92065 14.7647 2.73999 15.0505 2.60569C15.3459 2.49405 15.657 2.42976 15.9724 2.41517C16.2904 2.40456 16.6064 2.46987 16.8942 2.60569C17.4811 2.86491 17.9501 3.33391 18.2094 3.92084C18.3251 4.21497 18.3895 4.52677 18.3999 4.84267V7.91546C18.4104 8.23736 18.532 8.54569 18.744 8.78813C18.8585 8.90131 18.9951 8.98972 19.1452 9.04786C19.2953 9.10601 19.4558 9.13266 19.6167 9.12614C19.9376 9.11632 20.2456 8.99705 20.4894 8.78813C20.602 8.67354 20.6897 8.53682 20.7468 8.38661C20.804 8.2364 20.8293 8.07596 20.8212 7.91546V4.84267C20.8167 4.20842 20.6851 3.5815 20.4341 2.999C20.2001 2.40638 19.8344 1.87471 19.3647 1.44417C18.9222 0.991328 18.3963 0.628233 17.816 0.374842C17.2346 0.120398 16.607 -0.0114039 15.9724 -0.0123291C15.3382 -0.0066563 14.7116 0.124948 14.1287 0.374842C13.5361 0.608844 13.0044 0.9745 12.5739 1.44417C12.1216 1.88953 11.7586 2.41729 11.5045 2.999C11.2514 3.58083 11.1197 4.20818 11.1174 4.84267V7.91546C11.1286 8.2361 11.2477 8.54356 11.4554 8.78813C11.5712 8.90118 11.7089 8.98945 11.86 9.04757C12.0111 9.10568 12.1724 9.13241 12.3342 9.12614C12.6567 9.12428 12.9673 9.00399 13.2069 8.78813Z" fill="#3BB990"/>
<path d="M11.5045 23.2057C11.3914 23.3216 11.3032 23.4593 11.2451 23.6103C11.1869 23.7614 11.1602 23.9228 11.1665 24.0845V27.1573C11.1755 27.7911 11.307 28.4171 11.5537 29.001C11.7914 29.5898 12.1566 30.1187 12.623 30.5497C13.0651 31.0059 13.5936 31.3694 14.1778 31.619C14.7591 31.8738 15.3868 32.0056 16.0215 32.0062C16.6557 32.0017 17.2827 31.87 17.8652 31.619C18.4578 31.385 18.9894 31.0193 19.42 30.5497C19.8728 30.1071 20.2359 29.5813 20.4893 29.001C20.7438 28.4196 20.8756 27.792 20.8765 27.1573V24.0845C20.8696 23.7612 20.75 23.4504 20.5385 23.2057C20.4236 23.0931 20.2869 23.0051 20.1369 22.947C19.9869 22.8889 19.8266 22.8619 19.6658 22.8677C19.3447 22.8765 19.0364 22.9959 18.7931 23.2057C18.6781 23.3204 18.5881 23.4577 18.5288 23.609C18.4696 23.7603 18.4424 23.9222 18.449 24.0845V27.1573C18.4596 27.4754 18.3943 27.7914 18.2585 28.0792C18.13 28.3587 17.9578 28.6159 17.7484 28.8412C17.5193 29.061 17.2556 29.2417 16.9679 29.3759C16.6736 29.491 16.3619 29.5554 16.0461 29.5664C15.7281 29.5765 15.4122 29.5112 15.1242 29.3759C14.8384 29.2416 14.5768 29.0609 14.3499 28.8412C14.1261 28.6154 13.9449 28.351 13.8152 28.0607C13.6974 27.767 13.6309 27.4552 13.6186 27.1389V24.0661C13.6087 23.7433 13.4895 23.4335 13.2806 23.1873C13.1656 23.0747 13.029 22.9867 12.879 22.9286C12.7289 22.8705 12.5687 22.8435 12.4079 22.8493C12.2451 22.8314 12.0803 22.8527 11.9274 22.9115C11.7745 22.9704 11.638 23.0649 11.5291 23.1873" fill="#00A5C2"/>
<path d="M9.75918 12.8196C9.82464 12.9571 9.90501 13.0869 9.99885 13.2068L12.2174 16.4086C12.3056 16.539 12.42 16.6495 12.5533 16.7331C12.6867 16.8167 12.836 16.8716 12.9917 16.8941C13.314 16.9481 13.6448 16.8802 13.9197 16.7036C14.05 16.614 14.1604 16.4983 14.2439 16.364C14.3274 16.2297 14.3824 16.0796 14.4052 15.9231C14.457 15.6021 14.3869 15.2733 14.2086 15.0013L13.2867 13.6431L13.2376 13.5448H27.1266C27.4453 13.5344 27.7617 13.6019 28.0484 13.7415C28.3368 13.8713 28.5991 14.0525 28.8227 14.2761C29.0445 14.5013 29.2254 14.7633 29.3574 15.0505C29.4745 15.3444 29.541 15.6561 29.5541 15.9723C29.565 16.2911 29.4974 16.6076 29.3574 16.8941C29.2217 17.1841 29.0367 17.4482 28.8105 17.6746C28.5836 17.8943 28.3219 18.075 28.0361 18.2093C27.7408 18.3209 27.4297 18.3852 27.1143 18.3998H24.8588C24.5379 18.4096 24.23 18.5289 23.9862 18.7378C23.8719 18.8528 23.7829 18.9903 23.7247 19.1417C23.6665 19.293 23.6404 19.4547 23.6482 19.6166C23.6565 19.9379 23.7759 20.2463 23.9862 20.4893C24.1007 20.6025 24.2372 20.6909 24.3874 20.749C24.5375 20.8072 24.698 20.8338 24.8588 20.8273H27.0958C27.7296 20.8183 28.3557 20.6868 28.9395 20.4401C29.5305 20.2032 30.0616 19.8379 30.4943 19.3708C30.9467 18.9255 31.3096 18.3977 31.5637 17.816C31.8168 17.2342 31.9485 16.6068 31.9508 15.9723C31.9428 15.3384 31.8113 14.7122 31.5637 14.1286C31.3267 13.5376 30.9615 13.0066 30.4943 12.5738C30.049 12.1215 29.5212 11.7585 28.9395 11.5045C28.3573 11.2527 27.7302 11.121 27.0958 11.1173H10.9268C10.6041 11.1272 10.2942 11.2464 10.048 11.4553C9.93186 11.574 9.84178 11.7157 9.78358 11.8713C9.72537 12.0269 9.70031 12.1929 9.71001 12.3587C9.69967 12.5222 9.71628 12.6862 9.75918 12.8442" fill="#2067A7"/>
<path d="M22.1425 19.1803C22.0786 19.0388 21.996 18.9065 21.8967 18.787L19.715 15.536C19.6253 15.4057 19.5097 15.2954 19.3754 15.2118C19.2411 15.1283 19.091 15.0734 18.9345 15.0505C18.6134 14.9962 18.2837 15.0666 18.0127 15.2472C17.8798 15.3383 17.7677 15.4567 17.684 15.5944C17.6003 15.7322 17.5469 15.8861 17.5272 16.0461C17.4723 16.3672 17.5427 16.6972 17.7239 16.9679L18.6457 18.3261L18.6949 18.4244H4.84273C4.52473 18.4346 4.20884 18.3693 3.9209 18.2339C3.63317 18.0997 3.36949 17.9191 3.14041 17.6993C2.92039 17.4716 2.74156 17.2076 2.61189 16.9188C2.49476 16.6248 2.42827 16.3131 2.41523 15.9969C2.40434 15.6782 2.47187 15.3616 2.61189 15.0751C2.74174 14.7882 2.92059 14.5262 3.14041 14.3008C3.36621 14.0769 3.63063 13.8958 3.9209 13.7661C4.21487 13.649 4.52656 13.5825 4.84273 13.5694H7.07358C7.39634 13.5595 7.70618 13.4404 7.95239 13.2314C8.06719 13.1175 8.15748 12.9814 8.21772 12.8313C8.27796 12.6812 8.30688 12.5204 8.30269 12.3588C8.29279 12.036 8.17362 11.7261 7.96469 11.4799C7.84985 11.3647 7.71265 11.2741 7.56151 11.2139C7.41037 11.1536 7.2485 11.125 7.08587 11.1296H4.84273C4.20886 11.1377 3.58264 11.2692 2.99906 11.5168C2.40803 11.7538 1.87698 12.119 1.44423 12.5861C0.991916 13.0315 0.628952 13.5593 0.374903 14.141C0.122451 14.723 -0.00926372 15.3502 -0.0122681 15.9846C-0.0048259 16.6186 0.126707 17.2449 0.374903 17.8283C0.61188 18.4193 0.977109 18.9504 1.44423 19.3831C1.89066 19.8311 2.41835 20.1898 2.99906 20.4402C3.5811 20.6926 4.20831 20.8244 4.84273 20.8274H21.024C21.345 20.8175 21.6529 20.6983 21.8967 20.4893C22.0113 20.3756 22.101 20.2393 22.1603 20.0891C22.2195 19.9389 22.2469 19.778 22.2409 19.6167C22.2439 19.4654 22.2102 19.3157 22.1425 19.1803Z" fill="#1AD2E6"/>
</g>
<defs>
<clipPath id="clip0_1084_5315">
<rect width="32" height="32" fill="white"/>
</clipPath>
</defs>
</svg>
