<svg width="20" height="20" viewBox="0 0 20 20" fill="none" xmlns="http://www.w3.org/2000/svg">
<g clip-path="url(#clip0_224_3368)">
<path d="M9.99951 19C9.2115 19.0005 8.43113 18.8301 7.70302 18.4984C6.9749 18.1666 6.31332 17.6802 5.75612 17.0668C5.19892 16.4534 4.75702 15.7251 4.45569 14.9235C4.15436 14.1219 3.99951 13.2629 4 12.3954V3.99272C4 2.34264 5.21845 1 6.71853 1H13.2815C14.7806 1 16 2.34264 16 3.99272V12.3954C16.0005 13.263 15.8456 14.1221 15.5442 14.9237C15.2428 15.7254 14.8008 16.4537 14.2435 17.0671C13.6862 17.6806 13.0245 18.167 12.2963 18.4987C11.5681 18.8303 10.7876 19.0007 9.99951 19ZM6.71853 1.69231C6.16451 1.69299 5.63336 1.93558 5.24161 2.36684C4.84986 2.7981 4.6295 3.38282 4.62888 3.99272V12.3954C4.62888 13.9634 5.19471 15.4672 6.2019 16.576C7.20909 17.6848 8.57513 18.3077 9.99951 18.3077C11.4239 18.3077 12.7899 17.6848 13.7971 16.576C14.8043 15.4672 15.3701 13.9634 15.3701 12.3954V3.99272C15.3695 3.38301 15.1493 2.79845 14.7578 2.36722C14.3662 1.93599 13.8353 1.69328 13.2815 1.69231H6.71853Z" fill="#0068FF"/>
<path d="M10 17.9996C8.67392 17.9996 7.40215 17.4168 6.46447 16.3795C5.52678 15.3422 5 13.9353 5 12.4684V3.80655C5.00064 3.32764 5.1729 2.86855 5.47902 2.52991C5.78514 2.19127 6.20015 2.00071 6.63306 2H13.3669C13.7999 2.00071 14.2149 2.19127 14.521 2.52991C14.8271 2.86855 14.9994 3.32764 15 3.80655V12.4688C15 13.9358 14.4732 15.3427 13.5355 16.38C12.5979 17.4173 11.3261 18 10 18V17.9996ZM6.63407 2.71303C6.37221 2.71356 6.12121 2.82887 5.93605 3.0337C5.75089 3.23854 5.64665 3.5162 5.64617 3.80588V12.4688C5.64617 15.1249 7.5996 17.2863 10.001 17.2863C12.4024 17.2863 14.3558 15.1254 14.3558 12.4688V3.80655C14.3554 3.51687 14.2511 3.23921 14.066 3.03437C13.8808 2.82954 13.6298 2.71423 13.3679 2.7137L6.63407 2.71303Z" fill="#0068FF"/>
<path d="M13.2585 9H6.74151C6.54486 8.99975 6.35636 8.93084 6.21735 8.80838C6.07833 8.68592 6.00017 8.51992 6 8.34678V4.65284C6.00023 4.47976 6.07842 4.31382 6.21743 4.19143C6.35645 4.06905 6.54492 4.0002 6.74151 4H13.2585C13.4551 4.0002 13.6436 4.06905 13.7826 4.19143C13.9216 4.31382 13.9998 4.47976 14 4.65284V8.34678C13.9998 8.51992 13.9217 8.68592 13.7827 8.80838C13.6436 8.93084 13.4551 8.99975 13.2585 9ZM6.74151 4.60448C6.72694 4.60448 6.71297 4.60958 6.70267 4.61864C6.69237 4.62771 6.68658 4.64001 6.68658 4.65284V8.34678C6.68658 8.35961 6.69237 8.37191 6.70267 8.38098C6.71297 8.39005 6.72694 8.39514 6.74151 8.39514H13.2585C13.2731 8.39514 13.287 8.39005 13.2973 8.38098C13.3076 8.37191 13.3134 8.35961 13.3134 8.34678V4.65284C13.3134 4.64001 13.3076 4.62771 13.2973 4.61864C13.287 4.60958 13.2731 4.60448 13.2585 4.60448H6.74151Z" fill="#0068FF"/>
<path d="M10 15C9.40666 15 8.82664 14.8534 8.33329 14.5787C7.83994 14.304 7.45543 13.9135 7.22836 13.4567C7.0013 12.9999 6.94189 12.4972 7.05765 12.0123C7.1734 11.5273 7.45912 11.0819 7.87868 10.7322C8.29824 10.3826 8.83279 10.1445 9.41473 10.048C9.99667 9.95157 10.5999 10.0011 11.1481 10.1903C11.6962 10.3795 12.1648 10.7 12.4944 11.1111C12.8241 11.5222 13 12.0055 13 12.5C12.9991 13.1628 12.6828 13.7983 12.1203 14.267C11.5579 14.7356 10.7954 14.9993 10 15ZM10 10.6827C9.56852 10.6827 9.14674 10.7893 8.78798 10.989C8.42922 11.1888 8.1496 11.4727 7.98448 11.8049C7.81936 12.1371 7.77616 12.5027 7.86033 12.8553C7.94451 13.208 8.15229 13.5319 8.45739 13.7862C8.76249 14.0404 9.15121 14.2135 9.57439 14.2837C9.99758 14.3538 10.4362 14.3178 10.8349 14.1802C11.2335 14.0426 11.5742 13.8096 11.8139 13.5107C12.0536 13.2117 12.1816 12.8602 12.1816 12.5006C12.1809 12.0187 11.9508 11.5566 11.5419 11.2158C11.1329 10.8749 10.5784 10.6832 10 10.6827Z" fill="#0068FF"/>
<path d="M9.36062 8H9.35633C9.28988 7.99922 9.22505 7.97585 9.16971 7.93272C9.11437 7.8896 9.0709 7.82858 9.04457 7.75707L8.77166 7.01544L8.64485 7.14596C8.58227 7.21066 8.50173 7.24642 8.41828 7.24656H6.34329C6.25225 7.24656 6.16493 7.20416 6.10055 7.1287C6.03617 7.05324 6 6.9509 6 6.84418C6 6.73747 6.03617 6.63512 6.10055 6.55966C6.16493 6.4842 6.25225 6.44181 6.34329 6.44181H8.28976L8.67403 6.04598C8.71473 6.00404 8.76332 5.97399 8.81583 5.95829C8.86833 5.94259 8.92327 5.94168 8.97613 5.95564C9.029 5.9696 9.07829 5.99802 9.11998 6.0386C9.16167 6.07917 9.19458 6.13073 9.21601 6.18907L9.36899 6.60477L9.90002 5.23645C9.92552 5.1704 9.96578 5.11365 10.0165 5.07221C10.0673 5.03077 10.1267 5.00617 10.1884 5.00102C10.2501 4.99586 10.3118 5.01035 10.3671 5.04294C10.4223 5.07553 10.469 5.12501 10.5023 5.18615L11.1412 6.36435L11.4665 5.77764C11.499 5.71903 11.5439 5.67134 11.5968 5.63927C11.6498 5.60719 11.709 5.59183 11.7685 5.59469C11.8281 5.59756 11.886 5.61856 11.9365 5.65562C11.9871 5.69268 12.0285 5.74453 12.0568 5.80606L12.367 6.4823H13.6567C13.7478 6.4823 13.8351 6.52469 13.8995 6.60015C13.9638 6.67561 14 6.77796 14 6.88467C14 6.99139 13.9638 7.09373 13.8995 7.16919C13.8351 7.24465 13.7478 7.28705 13.6567 7.28705H12.1619C12.0999 7.28704 12.039 7.26735 11.9858 7.23007C11.9326 7.19279 11.8889 7.1393 11.8596 7.0753L11.7265 6.78534L11.4262 7.32804C11.3949 7.38444 11.352 7.43074 11.3016 7.46273C11.2511 7.49471 11.1945 7.51135 11.1372 7.51112C11.0794 7.51089 11.0227 7.4936 10.9722 7.46085C10.9217 7.4281 10.879 7.38095 10.8481 7.32376L10.2626 6.24389L9.67301 7.76335C9.64584 7.83381 9.60193 7.8936 9.54653 7.93557C9.49113 7.97753 9.42658 7.9999 9.36062 8Z" fill="#0068FF"/>
</g>
<defs>
<clipPath id="clip0_224_3368">
<rect width="20" height="20" fill="white"/>
</clipPath>
</defs>
</svg>
