<svg xmlns="http://www.w3.org/2000/svg" xmlns:xlink="http://www.w3.org/1999/xlink" version="1.1" x="0px" y="0px" viewBox="0 0 256 320" style="enable-background:new 0 0 256 256;" xml:space="preserve"><style type="text/css">
	.st0{fill-rule:evenodd;clip-rule:evenodd;}
	.st1{display:none;}
	.st2{display:inline;}
	.st3{clip-path:url(#b);fill-rule:evenodd;clip-rule:evenodd;}
</style><g><g><path d="M159.9,182L159.9,182c-0.8,0-1.7-0.3-2.3-0.9L47.8,71.1c-1.2-1.2-1.2-3.3,0-4.5l13.2-13.2c0.6-0.6,1.4-0.9,2.3-0.9l0,0    c0.8,0,1.7,0.3,2.3,0.9l109.9,109.9c1.2,1.2,1.2,3.3,0,4.5l-13.2,13.2C161.6,181.7,160.8,182,159.9,182z M54.5,68.9l105.4,105.4    l8.6-8.6L63.2,60.2L54.5,68.9z"/><path d="M72.8,94.9c-0.8,0-1.6-0.3-2.3-0.9c-1.2-1.2-1.2-3.3,0-4.5l13.2-13.2c1.2-1.2,3.3-1.2,4.5,0c1.2,1.2,1.2,3.3,0,4.5    L75.1,94C74.5,94.6,73.7,94.9,72.8,94.9z"/><path d="M170.6,192.7c-0.8,0-1.6-0.3-2.3-0.9c-1.2-1.2-1.2-3.3,0-4.5l13.2-13.2c1.2-1.2,3.3-1.2,4.5,0c1.2,1.2,1.2,3.3,0,4.5    l-13.2,13.2C172.3,192.4,171.5,192.7,170.6,192.7z"/><path d="M181.4,203.5c-0.8,0-1.6-0.3-2.3-0.9c-1.2-1.2-1.2-3.3,0-4.5l13.2-13.2c1.2-1.2,3.3-1.2,4.5,0c1.2,1.2,1.2,3.3,0,4.5    l-13.2,13.2C183,203.1,182.2,203.5,181.4,203.5z"/><path d="M184.9,136.7c-1,0-2.1-0.5-2.7-1.5c-6.7-10.4-3.1-18.8-0.3-25.6c2.7-6.3,4.8-11.3,0.3-17.8c-1-1.5-0.6-3.4,0.8-4.4    c1.4-1,3.4-0.6,4.4,0.8c6.5,9.4,3.2,17.1,0.3,23.9c-2.8,6.5-5.1,12.1-0.2,19.6c1,1.5,0.5,3.5-0.9,4.4    C186.1,136.5,185.5,136.7,184.9,136.7z"/><path d="M202.6,166c-0.6,0-1.2-0.2-1.7-0.5c-1.5-1-1.9-2.9-0.9-4.4c4.9-7.5,2.5-13.1-0.2-19.6c-2.9-6.8-6.2-14.5,0.3-23.9    c1-1.5,3-1.8,4.4-0.8c1.5,1,1.8,3,0.8,4.4c-4.5,6.5-2.4,11.5,0.3,17.8c2.9,6.8,6.5,15.2-0.3,25.5C204.7,165.5,203.7,166,202.6,166    z"/></g></g><g class="st1"><g class="st2"><path d="M178.2,133.2c-6.6,0-13.2-1.4-19.4-4.4c-1.6-0.8-2.3-2.7-1.5-4.3c0.8-1.6,2.7-2.2,4.3-1.5c14.7,7.1,32.3,4.1,43.8-7.5    c8.1-8.1,12.1-19.1,11.1-30.3l-21.4,21.4c-0.8,0.8-2,1.1-3.1,0.8l-24.1-6.7c-1.1-0.3-1.9-1.1-2.2-2.2l-6.6-24    c-0.3-1.1,0-2.3,0.8-3.1L181.3,50c-11.2-0.9-22.2,3.1-30.3,11.2c-11.5,11.5-14.5,29.1-7.5,43.8c0.6,1.2,0.3,2.7-0.6,3.6L126,125.5    c-1.2,1.2-3.3,1.2-4.5,0c-1.2-1.2-1.2-3.3,0-4.5l15.3-15.3c-7-16.7-3.2-36.1,9.7-49c11.1-11.1,26.9-15.5,42.2-11.9    c1.1,0.3,2,1.1,2.3,2.2c0.3,1.1,0,2.3-0.8,3.1l-24.5,24.5l5.7,20.5l20.6,5.7l24.5-24.5c0.8-0.8,2-1.1,3.1-0.8    c1.1,0.3,2,1.2,2.2,2.3c3.7,15.3-0.7,31.1-11.9,42.2C201.3,128.7,189.8,133.2,178.2,133.2z"/><path d="M174.8,210.9c-4.6,0-8.8-1.8-12-4.9l-69.7-69.7c-0.6-0.6-0.9-1.4-0.9-2.3c0-0.8,0.3-1.7,0.9-2.3l19.6-19.6    c1.2-1.2,3.3-1.2,4.5,0l69.7,69.7c3.2,3.2,5,7.5,5,12c0,4.6-1.8,8.8-5,12.1C183.6,209.1,179.4,210.9,174.8,210.9z M99.8,134    l67.5,67.4c4,4,11,4,15,0c2-2,3.1-4.7,3.1-7.5c0-2.8-1.1-5.5-3.1-7.5L114.9,119L99.8,134z"/><rect x="67" y="39.8" transform="matrix(0.7071 -0.7071 0.7071 0.7071 -42.5749 75.7625)" width="6.4" height="98.9"/><rect x="108.7" y="139.1" transform="matrix(0.7081 -0.7061 0.7061 0.7081 -64.6758 128.0419)" width="27.7" height="6.4"/><path d="M71.1,212.5c-4.4,0-8.7-1.7-12-5c-6.6-6.6-6.6-17.5,0-24.1l42.1-42.1c1.2-1.2,3.3-1.2,4.5,0c1.2,1.2,1.2,3.3,0,4.5    l-42.1,42.1c-4.2,4.2-4.2,10.9,0,15.1c4.1,4.1,10.9,4.1,15,0l43-43c1.2-1.2,3.3-1.2,4.5,0c1.2,1.2,1.2,3.3,0,4.5l-43,43    C79.8,210.8,75.5,212.5,71.1,212.5z"/><path d="M143.8,145.5c-0.8,0-1.6-0.3-2.3-0.9c-1.2-1.2-1.2-3.3,0-4.5l16.4-16.4c1.2-1.2,3.3-1.2,4.5,0c1.2,1.2,1.2,3.3,0,4.5    L146,144.6C145.4,145.2,144.6,145.5,143.8,145.5z"/></g><g class="st2"><g><defs><rect id="a" x="101.2" y="1019.3" width="53.7" height="27.5"/></defs><use xlink:href="#a" style="" overflow="visible" fill-rule="evenodd" clip-rule="evenodd"/><clipPath id="b"><use xlink:href="#a" style="" overflow="visible"/></clipPath></g></g></g><text x="0" y="271" fill="#000000" font-size="5px" font-weight="bold" font-family="'Helvetica Neue', Helvetica, Arial-Unicode, Arial, Sans-serif">Created by iconfield</text><text x="0" y="276" fill="#000000" font-size="5px" font-weight="bold" font-family="'Helvetica Neue', Helvetica, Arial-Unicode, Arial, Sans-serif">from the Noun Project</text></svg>